<svg width="118" height="32" viewBox="0 0 118 32" fill="none" xmlns="http://www.w3.org/2000/svg">
<path d="M10.6896 0H17.1295L27.9469 30.6002H21.4634L19.4039 24.0962H8.32799L6.30917 30.6002H0L10.6896 0ZM9.7891 19.3441H17.9021L15.1542 10.5263C14.6401 8.89887 13.9081 5.81771 13.9081 5.81771H13.8209C13.8209 5.81771 13.0483 8.89887 12.5341 10.5263L9.78619 19.3441H9.7891Z" fill="#FFFFFF"/>
<path d="M26.7926 8.64402H29.8397V1.79829H35.5505V8.64692H39.3296V12.4984H35.5505V24.1396C35.5505 25.767 36.451 26.323 37.7407 26.323C38.4698 26.323 39.4574 26.2796 39.4574 26.2796V30.5596C39.4574 30.5596 38.127 30.6465 35.809 30.6465C32.9769 30.6465 29.8426 29.5345 29.8426 25.3819V12.4984H26.7955V8.64692L26.7926 8.64402Z" fill="#FFFFFF"/>
<path d="M43.4819 0H49.0504V30.6002H43.4819V0Z" fill="#FFFFFF"/>
<path d="M66.5185 28.2507H66.4313C65.3159 29.9187 63.727 31.2045 59.9479 31.2045C55.4397 31.2045 52.2647 28.8502 52.2647 24.4862C52.2647 19.6501 56.2152 18.1096 61.1098 17.4232C64.7582 16.9107 66.4342 16.6095 66.4342 14.9415C66.4342 13.2735 65.1881 12.3295 62.7423 12.3295C59.9944 12.3295 58.664 13.3141 58.4926 15.4106H53.2988C53.4702 11.5592 56.346 8.17687 62.7858 8.17687C69.2257 8.17687 72.0579 11.1306 72.0579 16.2649V27.4341C72.0579 29.1021 72.3164 30.0867 72.8306 30.4718V30.6861H67.2069C66.8642 30.2575 66.6492 29.2295 66.5214 28.2478L66.5185 28.2507ZM66.5621 22.9427V19.6472C65.5309 20.2467 63.9419 20.5884 62.4837 20.9301C59.4366 21.6135 57.932 22.2998 57.932 24.353C57.932 26.4061 59.3059 27.1358 61.3654 27.1358C64.7146 27.1358 66.5591 25.0827 66.5591 22.9427H66.5621Z" fill="#FFFFFF"/>
<path d="M81.757 11.719H81.8848C83.3866 9.36466 85.4054 8.12525 88.4119 8.12525C92.9636 8.12525 96.0107 11.5481 96.0107 16.3436V30.6808H90.1721V17.2008C90.1721 14.8465 88.7982 13.1785 86.3524 13.1785C83.7758 13.1785 81.8877 15.2316 81.8877 18.2288V30.6837H76.0491V8.72469H81.7599V11.7219L81.757 11.719Z" fill="#FFFFFF"/>
<path d="M98.4276 23.5734H103.836C104.223 26.0986 106.027 27.2106 108.644 27.2106C111.261 27.2106 112.678 26.226 112.678 24.6854C112.678 22.5889 109.887 22.3746 106.883 21.7751C102.933 21.0048 99.0696 19.9334 99.0696 15.1408C99.0696 10.3482 103.02 8.12132 108.042 8.12132C113.837 8.12132 117.059 10.9882 117.486 15.3956H112.205C111.946 13.0413 110.445 12.1871 107.955 12.1871C105.681 12.1871 104.176 13.0442 104.176 14.6253C104.176 16.5076 107.095 16.6785 110.23 17.3214C113.922 18.0916 118 19.1197 118 24.254C118 28.6614 114.221 31.3169 108.728 31.3169C102.332 31.3169 98.7675 28.2357 98.4247 23.5705L98.4276 23.5734Z" fill="#FFFFFF"/>
</svg>
