<svg width="172" height="32" viewBox="0 0 172 32" fill="none" xmlns="http://www.w3.org/2000/svg">
<path d="M31.2727 0H8.97221C8.97221 4.40592 10.2535 8.50826 12.4596 11.9645C12.6666 12.2914 12.2914 12.6666 11.9645 12.4596C8.5067 10.2535 4.40125 8.97221 0 8.97221V31.2727H22.3005C22.3005 26.8668 21.0192 22.7645 18.8131 19.3082C18.6061 18.9813 18.9813 18.6061 19.3082 18.8131C22.7645 21.0192 26.8699 22.3005 31.2727 22.3005V0Z" fill="#3B3658"/>
<path d="M46.9091 26.2855V4.69086H55.855C57.9681 4.69086 59.7553 5.14507 61.2167 6.05349C62.6978 6.94216 63.8136 8.19617 64.564 9.81552C65.3342 11.4349 65.7193 13.3307 65.7193 15.503C65.7193 17.1026 65.502 18.5739 65.0676 19.9167C64.6331 21.2399 63.9913 22.3754 63.1421 23.3233C62.3127 24.2712 61.2858 25.0019 60.0614 25.5154C58.837 26.0288 57.4349 26.2855 55.855 26.2855H46.9091ZM50.8192 22.9086H55.2626C56.2105 22.9086 57.0794 22.7704 57.8693 22.4939C58.6593 22.2174 59.3406 21.7829 59.9133 21.1905C60.486 20.5783 60.9303 19.7983 61.2463 18.8503C61.5623 17.9024 61.7203 16.757 61.7203 15.4141C61.7203 13.6566 61.4438 12.2446 60.8908 11.1782C60.3379 10.092 59.5776 9.30207 58.6099 8.80836C57.662 8.29491 56.5462 8.03818 55.2626 8.03818H50.8192V22.9086Z" fill="#3B3658"/>
<path d="M67.9361 26.2855V10.5265H71.6389V26.2855H67.9361ZM67.9361 8.30478V4.69086H71.6389V8.30478H67.9361Z" fill="#3B3658"/>
<path d="M80.7873 26.5818C78.5558 26.5818 76.8278 26.0979 75.6034 25.1303C74.3988 24.1626 73.8063 22.8987 73.8261 21.3386H77.4696C77.4894 22.2865 77.8152 22.9777 78.4472 23.4122C79.0791 23.8269 79.8888 24.0342 80.8762 24.0342C81.8833 24.0342 82.6436 23.8565 83.1571 23.501C83.6903 23.1258 83.9569 22.6321 83.9569 22.0199C83.9569 21.4867 83.8285 21.0819 83.5718 20.8054C83.3151 20.5092 82.93 20.292 82.4165 20.1537C81.9031 19.9957 81.2415 19.8674 80.4318 19.7686C79.5432 19.6304 78.7236 19.4724 77.9732 19.2947C77.2228 19.0972 76.5711 18.8306 76.0181 18.4949C75.4652 18.1591 75.0307 17.7148 74.7147 17.1619C74.3988 16.6089 74.2408 15.9177 74.2408 15.0883C74.2408 14.0219 74.5173 13.1332 75.0702 12.4223C75.6429 11.6916 76.423 11.1485 77.4104 10.7931C78.3978 10.4178 79.5531 10.2302 80.8762 10.2302C82.1993 10.2302 83.3447 10.4277 84.3124 10.8227C85.28 11.2176 86.0206 11.7805 86.534 12.5112C87.0673 13.2418 87.3437 14.1305 87.3635 15.1772H83.7495C83.7298 14.6242 83.5916 14.1799 83.3348 13.8442C83.0979 13.4887 82.7621 13.2221 82.3277 13.0444C81.8932 12.8666 81.3798 12.7778 80.7873 12.7778C79.8592 12.7778 79.1482 12.9555 78.6545 13.311C78.1806 13.6664 77.9436 14.1305 77.9436 14.7032C77.9436 15.1574 78.0719 15.5228 78.3287 15.7992C78.5854 16.0757 78.9804 16.2929 79.5136 16.4509C80.0468 16.5892 80.7281 16.7175 81.5575 16.836C82.3672 16.9348 83.1374 17.073 83.868 17.2507C84.6185 17.4285 85.28 17.6852 85.8527 18.0209C86.4254 18.3566 86.8698 18.8207 87.1857 19.4132C87.5215 19.9859 87.6893 20.7363 87.6893 21.6645C87.6893 23.3431 87.0673 24.5872 85.8231 25.3969C84.5987 26.1868 82.9201 26.5818 80.7873 26.5818Z" fill="#3B3658"/>
<path d="M94.8542 26.2855C93.8866 26.2855 93.1263 26.1473 92.5733 25.8708C92.0401 25.5746 91.6649 25.1599 91.4477 24.6267C91.2304 24.0935 91.1218 23.4517 91.1218 22.7012V13.5183H88.2188V10.5265H91.1218V6.08311L94.795 5.69802V10.5265H98.1423V13.5183H94.795V22.0199C94.795 22.5136 94.9036 22.8494 95.1208 23.0271C95.3381 23.1851 95.6738 23.2641 96.128 23.2641H98.1423V26.2855H94.8542Z" fill="#3B3658"/>
<path d="M100.099 26.2855V10.5265H103.447L103.625 13.1628H103.743C104.098 12.1557 104.671 11.4349 105.461 11.0004C106.271 10.5462 107.189 10.3191 108.216 10.3191C108.394 10.3191 108.552 10.3191 108.69 10.3191C108.848 10.3191 108.996 10.3191 109.134 10.3191V13.8145C109.016 13.8145 108.868 13.8145 108.69 13.8145C108.532 13.7948 108.354 13.7849 108.157 13.7849C107.209 13.7849 106.419 13.9429 105.787 14.2589C105.155 14.5551 104.671 14.9896 104.335 15.5623C104.019 16.135 103.842 16.836 103.802 17.6654V26.2855H100.099Z" fill="#3B3658"/>
<path d="M110.666 26.2855V10.5265H114.369V26.2855H110.666ZM110.666 8.30478V4.69086H114.369V8.30478H110.666Z" fill="#3B3658"/>
<path d="M124.226 26.5521C123.061 26.5521 122.005 26.3645 121.057 25.9893C120.109 25.5944 119.289 25.0414 118.598 24.3305C117.907 23.5998 117.384 22.7407 117.028 21.7533C116.673 20.7462 116.495 19.6304 116.495 18.406C116.495 16.7472 116.811 15.3154 117.443 14.1108C118.095 12.8864 119.003 11.9385 120.168 11.267C121.353 10.5758 122.745 10.2302 124.345 10.2302C125.668 10.2302 126.843 10.4771 127.87 10.9708C128.897 11.4645 129.716 12.1557 130.329 13.0444C130.961 13.9133 131.306 14.9303 131.365 16.0955H127.751C127.653 15.4833 127.435 14.9698 127.1 14.5551C126.784 14.1404 126.379 13.8244 125.885 13.6072C125.392 13.39 124.848 13.2813 124.256 13.2813C123.407 13.2813 122.676 13.4986 122.064 13.933C121.452 14.3477 120.988 14.9402 120.672 15.7104C120.375 16.4805 120.227 17.3791 120.227 18.406C120.227 19.5317 120.395 20.4697 120.731 21.2201C121.067 21.9706 121.531 22.5433 122.123 22.9382C122.735 23.3134 123.436 23.501 124.226 23.501C124.918 23.501 125.52 23.3826 126.033 23.1456C126.547 22.8888 126.952 22.5433 127.248 22.1088C127.564 21.6546 127.751 21.1411 127.811 20.5684H131.425C131.346 21.7731 130.99 22.8296 130.358 23.738C129.726 24.6267 128.887 25.3179 127.84 25.8116C126.794 26.3053 125.589 26.5521 124.226 26.5521Z" fill="#3B3658"/>
<path d="M138.308 26.2855C137.34 26.2855 136.58 26.1473 136.027 25.8708C135.494 25.5746 135.118 25.1599 134.901 24.6267C134.684 24.0935 134.575 23.4517 134.575 22.7012V13.5183H131.672V10.5265H134.575V6.08311L138.248 5.69802V10.5265H141.596V13.5183H138.248V22.0199C138.248 22.5136 138.357 22.8494 138.574 23.0271C138.791 23.1851 139.127 23.2641 139.581 23.2641H141.596V26.2855H138.308Z" fill="#3B3658"/>
<path d="M149.685 26.5818C147.453 26.5818 145.725 26.0979 144.501 25.1303C143.296 24.1626 142.704 22.8987 142.723 21.3386H146.367C146.387 22.2865 146.713 22.9777 147.345 23.4122C147.976 23.8269 148.786 24.0342 149.774 24.0342C150.781 24.0342 151.541 23.8565 152.054 23.501C152.588 23.1258 152.854 22.6321 152.854 22.0199C152.854 21.4867 152.726 21.0819 152.469 20.8054C152.212 20.5092 151.827 20.292 151.314 20.1537C150.8 19.9957 150.139 19.8674 149.329 19.7686C148.441 19.6304 147.621 19.4724 146.871 19.2947C146.12 19.0972 145.468 18.8306 144.916 18.4949C144.363 18.1591 143.928 17.7148 143.612 17.1619C143.296 16.6089 143.138 15.9177 143.138 15.0883C143.138 14.0219 143.415 13.1332 143.968 12.4223C144.54 11.6916 145.32 11.1485 146.308 10.7931C147.295 10.4178 148.45 10.2302 149.774 10.2302C151.097 10.2302 152.242 10.4277 153.21 10.8227C154.177 11.2176 154.918 11.7805 155.431 12.5112C155.965 13.2418 156.241 14.1305 156.261 15.1772H152.647C152.627 14.6242 152.489 14.1799 152.232 13.8442C151.995 13.4887 151.66 13.2221 151.225 13.0444C150.791 12.8666 150.277 12.7778 149.685 12.7778C148.757 12.7778 148.046 12.9555 147.552 13.311C147.078 13.6664 146.841 14.1305 146.841 14.7032C146.841 15.1574 146.969 15.5228 147.226 15.7992C147.483 16.0757 147.878 16.2929 148.411 16.4509C148.944 16.5892 149.625 16.7175 150.455 16.836C151.265 16.9348 152.035 17.073 152.765 17.2507C153.516 17.4285 154.177 17.6852 154.75 18.0209C155.323 18.3566 155.767 18.8207 156.083 19.4132C156.419 19.9859 156.587 20.7363 156.587 21.6645C156.587 23.3431 155.965 24.5872 154.721 25.3969C153.496 26.1868 151.818 26.5818 149.685 26.5818Z" fill="#3B3658"/>
<path d="M162.499 26.3595V22.5192H161.111V21.7999H164.738V22.5192H163.325V26.3595H162.499ZM165.312 26.3595V21.7999H166.588L167.676 25.0398H167.707L168.789 21.7999H170.065V26.3595H169.258V24.3893L169.277 22.6693H169.233L168.039 26.3595H167.338L166.15 22.6693H166.106L166.119 24.4018V26.3595H165.312Z" fill="#3B3658"/>
</svg>
