<svg width="186" height="32" viewBox="0 0 186 32" fill="none" xmlns="http://www.w3.org/2000/svg">
<path d="M9.98795 18.2684V28.1092L15.3305 31.1601V22.6253C15.3305 18.039 12.8564 13.8026 8.84565 11.5086L0 6.45847V12.5602L9.98964 18.2667L9.98795 18.2684Z" fill="#3F3D36"/>
<path d="M32.7791 3.05086L27.4399 0L17.2522 5.82543L7.06626 0L1.72706 3.05086L10.7724 8.21991C14.7865 10.5139 19.7264 10.5139 23.7337 8.21991L32.7791 3.05086Z" fill="#3F3D36"/>
<path d="M24.5147 18.2686V28.1094L19.1721 31.1603V22.6256C19.1721 18.0392 21.6462 13.8029 25.657 11.5089L34.5026 6.45703V12.5588L24.513 18.2653L24.5147 18.2686Z" fill="#3F3D36"/>
<path d="M175.305 29.5138C169.764 29.5138 165.987 25.49 165.987 19.4543C165.987 13.3832 169.764 9.39474 175.305 9.39474C178.058 9.39474 180.67 10.6654 181.941 12.5008V4.24143H186V29.2314H181.941V26.443C180.67 28.2431 178.023 29.5138 175.305 29.5138ZM176.011 26.0194C179.47 26.0194 181.941 23.3722 181.941 19.4543C181.941 15.5363 179.47 12.8891 176.011 12.8891C172.552 12.8891 170.081 15.5363 170.081 19.4543C170.081 23.3722 172.552 26.0194 176.011 26.0194Z" fill="#3F3D36"/>
<path d="M158.713 29.2314V4.24143H162.772V29.2314H158.713Z" fill="#3F3D36"/>
<path d="M145.487 29.5138C139.663 29.5138 135.463 25.3488 135.463 19.4543C135.463 13.5597 139.663 9.39473 145.487 9.39473C151.311 9.39473 155.547 13.5597 155.547 19.4543C155.547 25.3488 151.311 29.5138 145.487 29.5138ZM145.487 26.0194C148.981 26.0194 151.417 23.3369 151.417 19.4543C151.417 15.5716 148.981 12.8538 145.487 12.8538C142.028 12.8538 139.592 15.5716 139.592 19.4543C139.592 23.3369 142.028 26.0194 145.487 26.0194Z" fill="#3F3D36"/>
<path d="M114.644 29.2314V4.24143H118.703V12.642C119.903 10.8066 122.409 9.39474 125.233 9.39474C129.398 9.39474 132.539 12.1479 132.539 16.3129V29.2314H128.48V17.3012C128.48 14.6892 126.856 12.995 124.315 12.995C121.068 12.995 118.703 15.5363 118.703 20.4779V29.2314H114.644Z" fill="#3F3D36"/>
<path d="M102.344 29.5138C96.3787 29.5138 92.496 25.3488 92.496 19.4543C92.496 13.5597 96.3786 9.39473 102.167 9.39473C108.274 9.39473 112.121 14.1245 111.309 20.1955H96.5551C96.8022 23.9369 98.9906 26.09 102.344 26.09C104.92 26.09 106.721 24.784 107.109 22.9133H111.274C110.638 26.7959 107.285 29.5138 102.344 29.5138ZM96.7669 17.1247H107.144C107.074 14.3716 105.097 12.642 102.167 12.642C99.3789 12.642 97.4375 14.301 96.7669 17.1247Z" fill="#3F3D36"/>
<path d="M81.3258 29.5138C75.3606 29.5138 71.478 25.3488 71.478 19.4543C71.478 13.5597 75.3606 9.39473 81.1493 9.39473C87.2556 9.39473 91.1029 14.1245 90.2911 20.1955H75.5371C75.7842 23.9369 77.9726 26.09 81.3258 26.09C83.9024 26.09 85.7025 24.784 86.0908 22.9133H90.2558C89.6205 26.7959 86.2673 29.5138 81.3258 29.5138ZM75.7489 17.1247H86.1261C86.0555 14.3716 84.0789 12.642 81.1493 12.642C78.3609 12.642 76.4195 14.301 75.7489 17.1247Z" fill="#3F3D36"/>
<path d="M59.0349 29.2314V9.67711H63.094V12.7832C64.1176 10.8066 66.4472 9.39473 68.8473 9.39473C69.7297 9.39473 70.5769 9.53592 71.1769 9.783V13.6656C70.3651 13.3832 69.4827 13.2068 68.6355 13.2068C65.5647 13.2068 63.094 15.9952 63.094 21.925V29.2314H59.0349Z" fill="#3F3D36"/>
<path d="M48.2545 29.2314V12.9597H45.1484V9.67711H48.2545V8.61821C48.2545 4.66499 50.6547 2.40601 54.0785 2.40601C55.1374 2.40601 56.1963 2.58249 56.6904 2.79427V6.25334C56.161 6.00626 55.5256 5.86508 54.8903 5.86508C53.4078 5.86508 52.3136 6.81808 52.3136 8.86529V9.67711H56.6551V12.9597H52.3136V29.2314H48.2545Z" fill="#3F3D36"/>
</svg>
