<svg width="746" height="885" viewBox="0 0 746 885" fill="none" xmlns="http://www.w3.org/2000/svg">
<mask id="path-1-outside-1_3540_387738" maskUnits="userSpaceOnUse" x="0" y="0" width="746" height="885" fill="black">
<rect fill="white" width="746" height="885"/>
<path d="M691 1C715.307 1.00991 723.811 12.2644 725.901 36.0723C726.15 38.8561 728.701 41 731.819 41H745V884H1V41H14.1807C17.2987 41 19.8505 38.8561 20.0986 36.0723C22.1892 12.2644 30.693 1.00991 55 1H691Z"/>
</mask>
<path d="M691 1L691 0H691V1ZM725.901 36.0723L724.905 36.1597L724.905 36.161L725.901 36.0723ZM731.819 41V40V40V41ZM745 41H746V40H745V41ZM745 884V885H746V884H745ZM1 884H0V885H1V884ZM1 41V40H0V41H1ZM14.1807 41V40V40V41ZM20.0986 36.0723L21.0947 36.161L21.0948 36.1597L20.0986 36.0723ZM55 1V-1.19209e-07L54.9996 5.96046e-08L55 1ZM691 1L691 2C703.012 2.0049 710.891 4.78745 716.052 10.2956C721.244 15.8368 723.866 24.3221 724.905 36.1597L725.901 36.0723L726.898 35.9848C725.846 24.0145 723.171 14.9686 717.512 8.92817C711.821 2.85465 703.295 0.00501066 691 5.96046e-08L691 1ZM725.901 36.0723L724.905 36.161C725.207 39.5402 728.267 42 731.819 42V41V40C729.135 40 727.093 38.1721 726.897 35.9835L725.901 36.0723ZM731.819 41V42H745V41V40H731.819V41ZM745 41H744V884H745H746V41H745ZM745 884V883H1V884V885H745V884ZM1 884H2V41H1H0V884H1ZM1 41V42H14.1807V41V40H1V41ZM14.1807 41V42C17.7328 42 20.7935 39.5402 21.0947 36.161L20.0986 36.0723L19.1026 35.9835C18.9075 38.1721 16.8646 40 14.1807 40V41ZM20.0986 36.0723L21.0948 36.1597C22.1343 24.3221 24.7561 15.8368 29.9479 10.2956C35.1087 4.78745 42.9882 2.0049 55.0004 2L55 1L54.9996 5.96046e-08C42.7048 0.00501066 34.1789 2.85465 28.4884 8.92817C22.8289 14.9686 20.1536 24.0145 19.1025 35.9848L20.0986 36.0723ZM55 1V2H691V1V0H55V1Z" fill="#F0F0F0" mask="url(#path-1-outside-1_3540_387738)"/>
</svg>
