<svg width="148" height="48" viewBox="0 0 148 48" fill="none" xmlns="http://www.w3.org/2000/svg">
<g clip-path="url(#clip0_350_75410)">
<path d="M66.4817 34.5498V15.1326H70.3882V17.7368C71.6904 15.6687 73.8606 14.5581 76.4255 14.5581C80.4108 14.5581 83.2125 16.9708 83.2125 21.5666V34.5498H79.227V21.9496C79.227 19.4602 78.0432 17.7751 75.4784 17.7751C72.8347 17.7751 70.4672 19.5368 70.4672 23.7114V34.5498H66.4817Z" fill="white"/>
<path d="M96.5564 35.1241C90.7954 35.1241 86.5732 30.7965 86.5732 24.822C86.5732 18.8859 90.7954 14.5581 96.5564 14.5581C102.318 14.5581 106.54 18.8859 106.54 24.822C106.54 30.7965 102.318 35.1241 96.5564 35.1241ZM96.5564 31.9453C100.068 31.9453 102.475 29.3411 102.475 24.822C102.475 20.3411 100.068 17.7368 96.5564 17.7368C93.084 17.7368 90.6375 20.3411 90.6375 24.822C90.6375 29.3411 93.084 31.9453 96.5564 31.9453Z" fill="white"/>
<path d="M116.596 35.1238C112.334 35.1238 109.887 32.4814 109.887 28.0005V15.1323H113.833V27.5408C113.833 30.4515 115.057 31.8686 117.424 31.8686C119.713 31.8686 122.238 30.1835 122.238 26.0472V15.1323H126.224V34.5495H122.317V31.9835C121.133 34.1281 119.003 35.1238 116.596 35.1238Z" fill="white"/>
<path d="M138.867 35.1239C133.342 35.1239 129.949 32.443 129.475 28.7281H133.776C134.21 30.6814 135.986 32.0602 138.985 32.0602C141.471 32.0602 143.247 30.9878 143.247 29.3026C143.247 27.809 142.063 27.0814 139.103 26.4687L136.736 25.9708C132.593 25.0515 130.225 23.5196 130.225 20.3409C130.225 17.1621 133.382 14.5962 138.156 14.5962C143.207 14.5962 146.088 17.2388 146.601 20.3409H142.734C142.181 18.6557 140.721 17.6218 138.117 17.6218C135.868 17.6218 134.289 18.5791 134.289 20.1111C134.289 21.4515 135.276 22.026 137.446 22.5239L140.051 23.1366C144.865 24.209 147.311 25.7409 147.311 28.958C147.311 32.6345 143.641 35.1239 138.867 35.1239Z" fill="white"/>
<path d="M22.1939 12.2845C22.1939 14.0645 22.1939 14.9546 22.5406 15.6344C22.8455 16.2325 23.3321 16.7187 23.9306 17.0234C24.6111 17.3698 25.5017 17.3698 27.283 17.3698H28.0408C29.8222 17.3698 30.7129 17.3698 31.3933 17.7162C31.9918 18.021 32.4783 18.5072 32.7833 19.1053C33.1299 19.7852 33.1299 20.6752 33.1299 22.4552V26.7477C33.1299 28.5278 33.1299 29.4178 33.4767 30.0976C33.7816 30.6958 34.2682 31.1819 34.8667 31.4866C35.5471 31.833 36.4378 31.833 38.2193 31.833H38.6552C40.4367 31.833 41.3273 31.833 42.0078 31.4866C42.6063 31.1819 43.0929 30.6958 43.3978 30.0976C43.7445 29.4178 43.7444 28.5278 43.7444 26.7477V22.4552C43.7444 20.6752 43.7445 19.7852 43.3978 19.1053C43.0929 18.5072 42.6063 18.021 42.0078 17.7162C41.3273 17.3698 40.4367 17.3698 38.6552 17.3698H38.5409C36.7596 17.3698 35.8687 17.3698 35.1883 17.0234C34.59 16.7187 34.1033 16.2325 33.7983 15.6344C33.4517 14.9546 33.4517 14.0645 33.4517 12.2845V9.59901C33.4517 7.81897 33.4517 6.92895 33.7983 6.24907C34.1033 5.65102 34.59 5.1648 35.1883 4.86008C35.8687 4.51367 36.7596 4.51367 38.5409 4.51367H38.9768C40.7583 4.51367 41.6489 4.51367 42.3294 4.86008C42.9279 5.1648 43.4145 5.65102 43.7194 6.24907C44.0662 6.92895 44.0662 7.81897 44.0662 9.59901V12.2845C44.0662 14.0645 44.0662 14.9546 44.4127 15.6344C44.7178 16.2325 45.2044 16.7187 45.8029 17.0234C46.4832 17.3698 47.374 17.3698 49.1553 17.3698H49.913C51.6943 17.3698 52.5852 17.3698 53.2654 17.7162C53.8639 18.021 54.3506 18.5072 54.6556 19.1053C55.0022 19.7852 55.0022 20.6752 55.0022 22.4552V26.7477C55.0022 28.5278 55.0022 29.4178 54.6556 30.0976C54.3506 30.6958 53.8639 31.1819 53.2654 31.4866C52.5852 31.833 51.6943 31.833 49.913 31.833H49.1553C47.374 31.833 46.4832 31.833 45.8029 32.1795C45.2044 32.4842 44.7178 32.9705 44.4127 33.5685C44.0662 34.2483 44.0662 35.1384 44.0662 36.9184V39.6039C44.0662 41.3839 44.0662 42.2739 43.7194 42.9538C43.4145 43.5518 42.9279 44.0381 42.3294 44.3428C41.6489 44.6893 40.7583 44.6893 38.9768 44.6893H37.8977C36.1162 44.6893 35.2255 44.6893 34.5451 44.3428C33.9466 44.0381 33.46 43.5518 33.1551 42.9538C32.8083 42.2739 32.8083 41.3839 32.8083 39.6039V36.9184C32.8083 35.1384 32.8083 34.2483 32.4617 33.5685C32.1567 32.9705 31.6701 32.4842 31.0716 32.1795C30.3913 31.833 29.5005 31.833 27.7192 31.833H26.9614C25.1801 31.833 24.2893 31.833 23.6089 31.4866C23.0105 31.1819 22.5239 30.6958 22.2189 30.0976C21.8723 29.4178 21.8723 28.5278 21.8723 26.7477V22.4552C21.8723 20.6752 21.8723 19.7852 21.5255 19.1053C21.2206 18.5072 20.734 18.021 20.1355 17.7162C19.4551 17.3698 18.5644 17.3698 16.783 17.3698H16.347C14.5656 17.3698 13.6749 17.3698 12.9945 17.7162C12.396 18.021 11.9094 18.5072 11.6044 19.1053C11.2578 19.7852 11.2578 20.6752 11.2578 22.4552V26.7477C11.2578 28.5278 11.2578 29.4178 11.6044 30.0976C11.9094 30.6958 12.396 31.1819 12.9945 31.4866C13.6749 31.833 14.5656 31.833 16.347 31.833H16.4614C18.2428 31.833 19.1335 31.833 19.8139 32.1795C20.4124 32.4842 20.8989 32.9705 21.2039 33.5685C21.5505 34.2483 21.5505 35.1384 21.5505 36.9184V39.6039C21.5505 41.3839 21.5505 42.2739 21.2039 42.9538C20.8989 43.5518 20.4124 44.0381 19.8139 44.3428C19.1335 44.6893 18.2428 44.6893 16.4614 44.6893H16.0253C14.2439 44.6893 13.3533 44.6893 12.6728 44.3428C12.0743 44.0381 11.5877 43.5518 11.2828 42.9538C10.9361 42.2739 10.9361 41.3839 10.9361 39.6039V36.9184C10.9361 35.1384 10.9361 34.2483 10.5894 33.5685C10.2845 32.9705 9.79789 32.4842 9.19938 32.1795C8.51899 31.833 7.62829 31.833 5.8469 31.833H5.08922C3.30783 31.833 2.41713 31.833 1.73672 31.4866C1.13823 31.1819 0.651633 30.6958 0.346682 30.0976C0 29.4178 0 28.5278 0 26.7477V22.4552C0 20.6752 0 19.7852 0.346682 19.1053C0.651633 18.5072 1.13823 18.021 1.73672 17.7162C2.41713 17.3698 3.30783 17.3698 5.08922 17.3698H5.8469C7.62829 17.3698 8.51899 17.3698 9.19938 17.0234C9.79789 16.7187 10.2845 16.2325 10.5894 15.6344C10.9361 14.9546 10.9361 14.0645 10.9361 12.2845V9.59901C10.9361 7.81897 10.9361 6.92895 11.2828 6.24907C11.5877 5.65102 12.0743 5.1648 12.6728 4.86008C13.3533 4.51367 14.2439 4.51367 16.0253 4.51367H17.1047C18.886 4.51367 19.7768 4.51367 20.4571 4.86008C21.0556 5.1648 21.5422 5.65102 21.8473 6.24907C22.1939 6.92895 22.1939 7.81897 22.1939 9.59901V12.2845Z" fill="white"/>
</g>
<defs>
<clipPath id="clip0_350_75410">
<rect width="73.6552" height="24" fill="white" transform="scale(2)"/>
</clipPath>
</defs>
</svg>
