<svg width="127" height="32" viewBox="0 0 127 32" fill="none" xmlns="http://www.w3.org/2000/svg">
<path d="M16 0C18.8894 0 21.5527 0.735531 24.0127 2.15527C26.4727 3.60162 28.4 5.52737 29.8447 7.9873C31.2894 10.4473 32 13.1089 32 16C32 18.8911 31.2895 21.5527 29.8447 24.0127C28.3983 26.4727 26.4727 28.4 24.0127 29.8447C21.5527 31.2895 18.8911 32 16 32C13.1089 32 10.4473 31.2894 7.9873 29.8447C5.5274 28.3984 3.59995 26.4726 2.15527 24.0127C0.710558 21.5527 0 18.8911 0 16C9.48686e-06 13.1089 0.710558 10.4457 2.15527 7.9873C3.60162 5.52737 5.52739 3.59997 7.9873 2.15527C10.4473 0.710574 13.1106 2.716e-05 16 0ZM3.625 17.6748C3.82809 19.3474 4.36108 20.9206 5.19824 22.3652C6.28843 24.2908 7.8096 25.8124 9.71191 26.9541C11.6143 28.0958 13.7182 28.6533 16 28.6533C18.2818 28.6533 20.3857 28.0957 22.2881 26.9541V26.9805C23.2252 26.4229 24.0626 25.7636 24.8232 25.0029H16.8359C15.0101 25.0029 13.3866 24.622 11.9668 23.8613C10.5472 23.1007 9.43107 22.0349 8.64551 20.7168C8.08799 19.7782 7.73157 18.7649 7.58008 17.6748H3.625ZM75.9395 6.5918C77.7651 6.59183 79.4126 7.0233 80.8838 7.86035C82.3551 8.72253 83.4958 9.83945 84.333 11.2842C85.1685 12.7039 85.5742 14.3021 85.5742 16.0264C85.5742 17.7505 85.17 19.3214 84.333 20.7676C83.4958 22.214 82.3551 23.3542 80.8838 24.1914C79.4125 25.0285 77.7385 25.4599 75.9395 25.46C74.1402 25.46 72.5173 25.0286 71.0459 24.1914C69.5746 23.3292 68.4339 22.2123 67.5967 20.7676C66.7614 19.348 66.3555 17.7504 66.3555 16.0264C66.3555 14.3021 66.7596 12.7305 67.5967 11.2842C68.4339 9.83779 69.5745 8.69756 71.0459 7.86035C72.4906 7.02315 74.1136 6.5918 75.9395 6.5918ZM126.83 0.228516V24.9756H122.697V22.668C122.546 22.8694 122.419 23.0729 122.241 23.251C121.607 23.9615 120.821 24.4929 119.883 24.874C118.919 25.2534 118.59 25.4561 116.789 25.4561C114.988 25.4561 113.392 25.0498 112.022 24.2393C110.654 23.4287 109.589 22.3119 108.828 20.8672C108.094 19.4475 107.713 17.7993 107.713 16.0234C107.713 14.2478 108.094 12.6252 108.854 11.1807C109.615 9.73596 110.679 8.61917 112.049 7.80859C113.444 6.99802 115.093 6.5918 116.791 6.5918C118.489 6.59185 119.935 7.0232 121.177 7.86035C121.786 8.29134 122.292 8.77364 122.673 9.33105V0.228516H126.83ZM51.3945 6.79395C52.2317 6.79395 52.9666 7.0222 53.5508 7.50488C54.1332 7.98589 54.5391 8.62046 54.7422 9.43262L57.7725 21.0977L61.4609 7.07422H65.7725L61.2588 22.4648C60.7012 24.3672 59.6357 25.3046 57.835 25.3047C56.034 25.3047 54.8938 24.3656 54.4111 22.4648L51.3936 10.6738L48.3789 22.4648C47.8979 24.3673 46.756 25.3047 44.9551 25.3047C43.1543 25.3046 42.0905 24.3656 41.5312 22.4648L37.0176 7.07422H41.3281L45.0166 21.0977L48.0479 9.43262C48.2509 8.62207 48.6567 7.98756 49.2393 7.50488C49.8217 7.02394 50.5575 6.79402 51.3945 6.79395ZM104.619 18.7656C104.619 19.7265 104.821 20.4112 105.201 20.8672H105.18C105.559 21.3249 106.244 21.5781 107.183 21.5781V25.0771H106.776C104.671 25.0771 103.1 24.6204 102.06 23.6816C101.019 22.7446 100.486 21.2732 100.486 19.2959V0.228516H104.619V18.7656ZM97.998 10.9824H97.8975C96.02 11.0074 94.5996 11.488 93.5859 12.4268C92.5973 13.3638 92.0899 14.8852 92.0898 17.0156V24.9766H87.957V7.0752H92.04V10.5742C92.4212 9.55897 93.0036 8.72341 93.8408 8.11426V8.11719C94.9809 7.28008 96.3259 6.84961 97.8721 6.84961H97.998V10.9824ZM117.271 10.1953C116.181 10.1953 115.243 10.4485 114.433 10.9561C113.622 11.462 112.988 12.1725 112.557 13.0596C112.126 13.9467 111.897 14.9353 111.897 16.0254C111.897 17.1155 112.126 18.1041 112.557 18.9912C112.988 19.8784 113.622 20.5881 114.433 21.0957C115.243 21.6031 116.208 21.8564 117.271 21.8564C118.335 21.8564 119.299 21.6015 120.136 21.0957C120.973 20.5897 121.633 19.8784 122.089 18.9912C122.545 18.1042 122.772 17.1154 122.772 16.0254C122.772 14.9353 122.545 13.9466 122.089 13.0596C121.608 12.1724 120.973 11.4637 120.136 10.9561C119.325 10.4485 118.362 10.1953 117.271 10.1953ZM11.1318 17.6475C11.3865 18.6611 11.8673 19.5237 12.6279 20.2344C13.7431 21.273 15.1883 21.7803 16.9893 21.7803H27.1055C27.7645 20.4871 28.1959 19.1187 28.374 17.6475H11.1318ZM75.9912 10.2686C74.9261 10.2686 73.9873 10.5218 73.1768 11.0293C72.3645 11.5353 71.7051 12.2213 71.249 13.1084C70.793 13.9955 70.5645 14.9342 70.5645 16.0244C70.5645 17.1146 70.793 18.1037 71.249 18.9658C71.7051 19.8278 72.3663 20.512 73.1768 21.0195C73.9889 21.527 74.9511 21.7803 75.9912 21.7803C77.0313 21.7802 77.9952 21.5271 78.8057 21.0195C79.6178 20.5119 80.2764 19.8275 80.7324 18.9404C81.1885 18.0533 81.417 17.1146 81.417 16.0244C81.417 14.9342 81.1885 13.9452 80.7324 13.083C80.2764 12.2211 79.6161 11.5369 78.8057 11.0293C77.9935 10.5217 77.0563 10.2686 75.9912 10.2686ZM105.202 20.8691L105.201 20.8672H105.205L105.202 20.8691ZM16 3.34668C13.7181 3.34671 11.6143 3.9051 9.71191 5.04688C7.80958 6.187 6.31337 7.70841 5.19824 9.63574L5.19922 9.63672V9.66211C4.33719 11.1333 3.83001 12.7295 3.62695 14.4287H7.58105C7.73416 13.3387 8.08906 12.3253 8.64648 11.3867C9.43373 10.0436 10.5491 9.00283 11.9688 8.24219C13.3884 7.48161 15.0112 7.10065 16.8369 7.10059H24.8994C24.1388 6.31502 23.2517 5.6294 22.2881 5.04688C20.3856 3.90508 18.2819 3.34668 16 3.34668ZM16.9893 10.2676C15.19 10.2676 13.7181 10.8006 12.6279 11.8408C11.8928 12.5511 11.3854 13.4126 11.1572 14.4004H28.3984C28.247 12.9308 27.8407 11.5608 27.1816 10.2676H16.9893Z" fill="#FFFFFF"/>
</svg>
