<svg width="100" height="100" viewBox="0 0 100 100" fill="none" xmlns="http://www.w3.org/2000/svg">
  <rect width="100" height="100" rx="22" fill="#ffffff"/>
  <g transform="translate(23 20) scale(1.5)">
    <path d="M35.1116 38.4191C32.9945 38.2461 31.9929 37.5422 31.9929 35.5301V7.99237C31.9929 7.83986 31.8734 7.71667 31.7254 7.71667H24.9728C24.8249 7.71667 24.7053 7.59349 24.7053 7.44097V0.2757C24.7053 0.123185 24.5858 0 24.4379 0H11.1148C10.9669 0 10.8474 0.123185 10.8474 0.2757V7.43804C10.8474 7.59056 10.7278 7.71374 10.5799 7.71374H3.82446C3.67649 7.71374 3.55698 7.83693 3.55698 7.98944V35.5272C3.55698 37.5392 2.55533 38.2431 0.43822 38.4162C0.190654 38.4367 0 38.6479 0 38.906V39.9971H14.41V38.906C14.41 38.6479 14.2194 38.4367 13.9718 38.4162C11.8519 38.2431 10.8502 37.5392 10.8502 35.5272V10.4502C10.9299 8.46458 12.0767 7.83693 14.4129 7.71667H21.1398C23.5586 7.83986 24.7025 8.50858 24.7053 10.6673V35.5301C24.7053 37.5422 23.7009 38.2461 21.5837 38.4191C21.3362 38.4397 21.1427 38.6508 21.1427 38.9089V40H35.5556V38.9089C35.5556 38.6508 35.3621 38.4397 35.1145 38.4191H35.1116Z" fill="#282328"/>
  </g>
</svg>
