<svg width="27" height="27" viewBox="0 0 27 27" fill="none" xmlns="http://www.w3.org/2000/svg">
<path d="M20.208 1.81392C18.1377 0.619113 15.8966 0 13.465 0C11.0333 0 8.79222 0.598102 6.72198 1.81392C4.65174 3.02973 3.03112 4.65175 1.81391 6.722C0.598101 8.79084 0 11.032 0 13.465C0 15.898 0.598101 18.1378 1.81391 20.208C3.02972 22.2783 4.65174 23.8989 6.72198 25.1161C8.79222 26.3319 11.0319 26.93 13.465 26.93C15.898 26.93 18.1377 26.3319 20.208 25.1161C22.2782 23.9003 23.8988 22.2783 25.116 20.208C26.3318 18.1378 26.9299 15.898 26.9299 13.465C26.9299 11.032 26.3318 8.79224 25.116 6.722C23.9002 4.65175 22.2782 3.03113 20.208 1.81392ZM14.297 18.3297C12.7814 18.3297 11.5656 17.9024 10.6271 17.0284C9.98702 16.4303 9.58222 15.7047 9.36791 14.8517H23.8778C23.7279 16.0899 23.3651 17.2413 22.8105 18.3297H14.2746H14.2956H14.297ZM9.38892 12.1203C9.58082 11.2883 10.008 10.5627 10.6271 9.96464C11.5446 9.08919 12.7828 8.64097 14.297 8.64097H22.8749C23.4296 9.72932 23.7714 10.8821 23.8988 12.1189H9.38892V12.1203ZM4.3744 8.1087C5.31287 6.48668 6.5721 5.20643 8.17311 4.24695C9.77411 3.28606 11.5446 2.81682 13.465 2.81682C15.3853 2.81682 17.1558 3.28606 18.7568 4.24695C19.5678 4.73719 20.3144 5.31429 20.9545 5.97542H14.1695C12.633 5.97542 11.2673 6.29618 10.0725 6.93631C8.87766 7.57643 7.93919 8.45187 7.27666 9.58224C6.80742 10.3722 6.50907 11.2253 6.38021 12.1427H3.05213C3.22302 10.7126 3.65024 9.36934 4.3758 8.13111V8.1101L4.3744 8.1087ZM18.7568 22.6831C17.1558 23.644 15.3853 24.1132 13.465 24.1132C11.5446 24.1132 9.77411 23.644 8.17311 22.6831C6.5721 21.7222 5.29186 20.4419 4.3744 18.8213C3.66984 17.6055 3.22162 16.2818 3.05073 14.8741H6.37881C6.50627 15.7916 6.80602 16.6446 7.27526 17.4346C7.93639 18.544 8.87626 19.4404 10.0711 20.0805C11.2659 20.7207 12.6316 21.0414 14.1681 21.0414H20.8901C20.25 21.6816 19.5454 22.2362 18.7568 22.7055V22.6845V22.6831Z" fill="url(#g)"/>
<defs><radialGradient id="g" cx="0" cy="0" r="1" gradientUnits="userSpaceOnUse" gradientTransform="translate(13.465 -0.167639) rotate(90) scale(27.0976 27.0976)"><stop stop-color="#1F1F1F"/><stop offset="1" stop-color="#1F1F1F" stop-opacity="0.9"/></radialGradient></defs>
</svg>
