<svg width="32" height="32" viewBox="0 0 32 32" fill="none" xmlns="http://www.w3.org/2000/svg">
<g clip-path="url(#c)">
<path fill-rule="evenodd" clip-rule="evenodd" d="M18.2744 13.0519C18.2744 11.7494 17.2189 10.6938 15.9173 10.6935C14.6154 10.6935 13.5589 11.7492 13.5589 13.0519C13.5589 14.3548 14.6154 15.4104 15.9173 15.4104C17.219 15.41 18.2744 14.3545 18.2744 13.0519ZM29.2563 15.9597C29.2563 23.305 23.302 29.2597 15.9576 29.2597C8.61332 29.2594 2.66016 23.3048 2.66016 15.9597C2.66029 8.61474 8.6134 2.66001 15.9576 2.65973C23.302 2.65973 29.2561 8.61456 29.2563 15.9597ZM20.9342 13.0519C20.9342 15.823 18.6884 18.0698 15.9173 18.0701C13.1459 18.0701 10.8991 15.8232 10.8991 13.0519C10.8992 10.2807 13.146 8.03376 15.9173 8.03376C18.6883 8.0341 20.9341 10.2809 20.9342 13.0519ZM19.9485 19.948V22.6078H11.9692V19.948H19.9485Z" fill="url(#g)"/>
</g>
<defs><radialGradient id="g" cx="0" cy="0" r="1" gradientUnits="userSpaceOnUse" gradientTransform="translate(15.9582 2.49414) rotate(90) scale(26.7656 26.7617)"><stop stop-color="#1F1F1F"/><stop offset="1" stop-color="#1F1F1F" stop-opacity="0.9"/></radialGradient><clipPath id="c"><rect width="31.9169" height="31.9169" fill="white"/></clipPath></defs>
</svg>
