<svg width="314" height="50" viewBox="0 0 314 50" fill="none" xmlns="http://www.w3.org/2000/svg">
<path d="M79.8601 0H90.1431L107.416 48.861H97.0634L93.7748 38.4757H76.0892L72.8656 48.861H62.7913L79.8601 0ZM78.4222 30.8878H91.3769L86.9891 16.808C86.1681 14.2093 84.9993 9.28946 84.9993 9.28946H84.8601C84.8601 9.28946 83.6263 14.2093 82.8054 16.808L78.4176 30.8878H78.4222Z" fill="#282328"/>
<path d="M105.576 13.7986H110.442V2.86768H119.561V13.8033H125.595V19.9531H119.561V38.5413C119.561 41.1399 120.998 42.0277 123.058 42.0277C124.222 42.0277 125.799 41.9583 125.799 41.9583V48.7925C125.799 48.7925 123.675 48.9312 119.973 48.9312C115.451 48.9312 110.446 47.1556 110.446 40.5249V19.9531H105.581V13.8033L105.576 13.7986Z" fill="#282328"/>
<path d="M132.22 0H141.112V48.861H132.22V0Z" fill="#282328"/>
<path d="M169.003 45.1086H168.864C167.083 47.772 164.546 49.825 158.512 49.825C151.313 49.825 146.243 46.0657 146.243 39.0975C146.243 31.3755 152.551 28.9156 160.367 27.8197C166.193 27.0013 168.869 26.5204 168.869 23.857C168.869 21.1936 166.879 19.6862 162.974 19.6862C158.586 19.6862 156.461 21.2584 156.188 24.6061H147.895C148.168 18.4563 152.76 13.0555 163.043 13.0555C173.326 13.0555 177.849 17.7719 177.849 25.9702V43.8046C177.849 46.468 178.261 48.0401 179.082 48.6551V48.9973H170.103C169.555 48.313 169.212 46.6715 169.008 45.104L169.003 45.1086ZM169.073 36.6329V31.3709C167.426 32.3281 164.889 32.8737 162.561 33.4193C157.695 34.5105 155.293 35.6064 155.293 38.8848C155.293 42.1631 157.487 43.3284 160.775 43.3284C166.123 43.3284 169.068 40.05 169.068 36.6329H169.073Z" fill="#282328"/>
<path d="M193.339 18.714H193.543C195.941 14.9547 199.165 12.9757 203.965 12.9757C211.233 12.9757 216.099 18.4412 216.099 26.0984V48.9914H206.776V27.4671C206.776 23.7078 204.582 21.0445 200.677 21.0445C196.563 21.0445 193.548 24.3228 193.548 29.1086V48.9961H184.225V13.9329H193.344V18.7186L193.339 18.714Z" fill="#282328"/>
<path d="M219.956 37.6357H228.592C229.209 41.6677 232.09 43.4433 236.269 43.4433C240.448 43.4433 242.711 41.8712 242.711 39.4112C242.711 36.0635 238.254 35.7213 233.458 34.7642C227.15 33.5342 220.981 31.8234 220.981 24.1708C220.981 16.5182 227.289 12.9624 235.309 12.9624C244.562 12.9624 249.706 17.5401 250.388 24.5777H241.955C241.543 20.8184 239.145 19.4544 235.17 19.4544C231.538 19.4544 229.135 20.8231 229.135 23.3477C229.135 26.3533 233.797 26.6261 238.801 27.6526C244.697 28.8826 251.209 30.5241 251.209 38.7223C251.209 45.7599 245.174 50 236.403 50C226.19 50 220.499 45.0802 219.951 37.631L219.956 37.6357Z" fill="#282328"/>
</svg>
