<svg width="314" height="50" viewBox="0 0 314 50" fill="none" xmlns="http://www.w3.org/2000/svg">
<path d="M69.5 0H33.8451C33.8451 7.04436 35.8937 13.6033 39.4208 19.1293C39.7519 19.652 39.152 20.2519 38.6293 19.9208C33.1008 16.3937 26.5369 14.3451 19.5 14.3451V50H55.1549C55.1549 42.9556 53.1063 36.3967 49.5792 30.8707C49.2481 30.348 49.848 29.7481 50.3707 30.0792C55.8967 33.6063 62.4606 35.6549 69.5 35.6549V0Z" fill="#282328"/>
<path d="M94.5 42.0264V7.5H108.803C112.182 7.5 115.039 8.22621 117.376 9.67862C119.744 11.0995 121.528 13.1044 122.727 15.6935C123.959 18.2826 124.574 21.3137 124.574 24.7869C124.574 27.3444 124.227 29.6967 123.532 31.8437C122.838 33.9592 121.812 35.7747 120.454 37.2903C119.128 38.8058 117.486 39.9741 115.528 40.795C113.571 41.6159 111.329 42.0264 108.803 42.0264H94.5ZM100.752 36.6272H107.856C109.371 36.6272 110.761 36.4062 112.024 35.9641C113.287 35.5221 114.376 34.8275 115.292 33.8802C116.207 32.9014 116.918 31.6543 117.423 30.1387C117.928 28.6231 118.181 26.7918 118.181 24.6448C118.181 21.8347 117.739 19.5771 116.855 17.8721C115.97 16.1355 114.755 14.8726 113.208 14.0832C111.692 13.2623 109.908 12.8518 107.856 12.8518H100.752V36.6272Z" fill="#282328"/>
<path d="M128.119 42.0264V16.8302H134.039V42.0264H128.119ZM128.119 13.2781V7.5H134.039V13.2781H128.119Z" fill="#282328"/>
<path d="M148.666 42.5C145.098 42.5 142.335 41.7264 140.378 40.1793C138.452 38.6322 137.504 36.6114 137.536 34.117H143.361C143.393 35.6326 143.914 36.7377 144.924 37.4323C145.935 38.0954 147.229 38.4269 148.808 38.4269C150.418 38.4269 151.634 38.1428 152.455 37.5744C153.307 36.9745 153.733 36.1852 153.733 35.2064C153.733 34.3539 153.528 33.7066 153.118 33.2645C152.707 32.7909 152.092 32.4436 151.271 32.2226C150.45 31.97 149.392 31.7648 148.097 31.6069C146.677 31.3859 145.366 31.1333 144.166 30.8491C142.967 30.5334 141.925 30.1071 141.041 29.5704C140.157 29.0336 139.462 28.3232 138.957 27.4391C138.452 26.555 138.199 25.4499 138.199 24.1238C138.199 22.4188 138.641 20.998 139.525 19.8613C140.441 18.6931 141.688 17.8248 143.267 17.2564C144.845 16.6565 146.692 16.3566 148.808 16.3566C150.923 16.3566 152.755 16.6723 154.302 17.3038C155.849 17.9353 157.033 18.8351 157.854 20.0034C158.706 21.1716 159.148 22.5925 159.18 24.2659H153.402C153.37 23.3818 153.149 22.6714 152.739 22.1346C152.36 21.5663 151.823 21.1401 151.129 20.8559C150.434 20.5717 149.613 20.4296 148.666 20.4296C147.182 20.4296 146.045 20.7138 145.256 21.2821C144.498 21.8505 144.119 22.5925 144.119 23.5081C144.119 24.2343 144.324 24.8184 144.735 25.2605C145.145 25.7025 145.777 26.0498 146.629 26.3024C147.482 26.5235 148.571 26.7287 149.897 26.9181C151.192 27.076 152.423 27.297 153.591 27.5812C154.791 27.8654 155.849 28.2758 156.765 28.8126C157.68 29.3493 158.391 30.0913 158.896 31.0386C159.433 31.9542 159.701 33.154 159.701 34.638C159.701 37.3218 158.706 39.311 156.717 40.6055C154.76 41.8685 152.076 42.5 148.666 42.5Z" fill="#282328"/>
<path d="M171.156 42.0264C169.609 42.0264 168.394 41.8054 167.51 41.3633C166.657 40.8897 166.057 40.2267 165.71 39.3742C165.363 38.5216 165.189 37.4955 165.189 36.2957V21.6137H160.548V16.8302H165.189V9.72598L171.062 9.11028V16.8302H176.414V21.6137H171.062V35.2064C171.062 35.9957 171.235 36.5325 171.583 36.8166C171.93 37.0692 172.467 37.1955 173.193 37.1955H176.414V42.0264H171.156Z" fill="#282328"/>
<path d="M179.543 42.0264V16.8302H184.895L185.179 21.0453H185.368C185.937 19.435 186.852 18.2826 188.115 17.588C189.41 16.8617 190.878 16.4986 192.52 16.4986C192.804 16.4986 193.057 16.4986 193.278 16.4986C193.53 16.4986 193.767 16.4986 193.988 16.4986V22.0873C193.799 22.0873 193.562 22.0873 193.278 22.0873C193.025 22.0557 192.741 22.0399 192.425 22.0399C190.909 22.0399 189.646 22.2925 188.636 22.7977C187.626 23.2713 186.852 23.9659 186.315 24.8816C185.81 25.7972 185.526 26.9181 185.463 28.2442V42.0264H179.543Z" fill="#282328"/>
<path d="M196.437 42.0264V16.8302H202.358V42.0264H196.437ZM196.437 13.2781V7.5H202.358V13.2781H196.437Z" fill="#282328"/>
<path d="M218.118 42.4526C216.255 42.4526 214.566 42.1527 213.05 41.5528C211.535 40.9213 210.224 40.0372 209.119 38.9005C208.014 37.7323 207.177 36.3588 206.609 34.7801C206.041 33.1698 205.756 31.3859 205.756 29.4283C205.756 26.776 206.262 24.4869 207.272 22.5609C208.314 20.6033 209.766 19.0877 211.629 18.0142C213.524 16.9091 215.75 16.3566 218.307 16.3566C220.423 16.3566 222.301 16.7512 223.943 17.5406C225.585 18.33 226.895 19.435 227.874 20.8559C228.885 22.2451 229.437 23.8712 229.532 25.7341H223.754C223.596 24.7553 223.249 23.9344 222.712 23.2713C222.207 22.6083 221.559 22.1031 220.77 21.7557C219.981 21.4084 219.112 21.2348 218.165 21.2348C216.807 21.2348 215.639 21.5821 214.66 22.2767C213.682 22.9398 212.94 23.887 212.434 25.1184C211.961 26.3498 211.724 27.7864 211.724 29.4283C211.724 31.228 211.992 32.7278 212.529 33.9276C213.066 35.1274 213.808 36.0431 214.755 36.6746C215.734 37.2745 216.855 37.5744 218.118 37.5744C219.223 37.5744 220.186 37.385 221.007 37.0061C221.828 36.5956 222.475 36.0431 222.949 35.3484C223.454 34.6222 223.754 33.8013 223.848 32.8857H229.627C229.5 34.8117 228.932 36.5009 227.922 37.9533C226.911 39.3742 225.569 40.4793 223.896 41.2686C222.222 42.058 220.296 42.4526 218.118 42.4526Z" fill="#282328"/>
<path d="M240.631 42.0264C239.084 42.0264 237.869 41.8054 236.985 41.3633C236.132 40.8897 235.532 40.2267 235.185 39.3742C234.838 38.5216 234.664 37.4955 234.664 36.2957V21.6137H230.022V16.8302H234.664V9.72598L240.537 9.11028V16.8302H245.889V21.6137H240.537V35.2064C240.537 35.9957 240.71 36.5325 241.058 36.8166C241.405 37.0692 241.942 37.1955 242.668 37.1955H245.889V42.0264H240.631Z" fill="#282328"/>
<path d="M258.821 42.5C255.254 42.5 252.491 41.7264 250.533 40.1793C248.607 38.6322 247.66 36.6114 247.692 34.117H253.517C253.549 35.6326 254.07 36.7377 255.08 37.4323C256.09 38.0954 257.385 38.4269 258.964 38.4269C260.574 38.4269 261.789 38.1428 262.61 37.5744C263.463 36.9745 263.889 36.1852 263.889 35.2064C263.889 34.3539 263.684 33.7066 263.273 33.2645C262.863 32.7909 262.247 32.4436 261.426 32.2226C260.605 31.97 259.548 31.7648 258.253 31.6069C256.832 31.3859 255.522 31.1333 254.322 30.8491C253.122 30.5334 252.08 30.1071 251.196 29.5704C250.312 29.0336 249.618 28.3232 249.112 27.4391C248.607 26.555 248.355 25.4499 248.355 24.1238C248.355 22.4188 248.797 20.998 249.681 19.8613C250.596 18.6931 251.844 17.8248 253.422 17.2564C255.001 16.6565 256.848 16.3566 258.964 16.3566C261.079 16.3566 262.91 16.6723 264.457 17.3038C266.005 17.9353 267.189 18.8351 268.01 20.0034C268.862 21.1716 269.304 22.5925 269.336 24.2659H263.558C263.526 23.3818 263.305 22.6714 262.895 22.1346C262.516 21.5663 261.979 21.1401 261.284 20.8559C260.59 20.5717 259.769 20.4296 258.821 20.4296C257.337 20.4296 256.201 20.7138 255.411 21.2821C254.654 21.8505 254.275 22.5925 254.275 23.5081C254.275 24.2343 254.48 24.8184 254.89 25.2605C255.301 25.7025 255.932 26.0498 256.785 26.3024C257.637 26.5235 258.727 26.7287 260.053 26.9181C261.347 27.076 262.579 27.297 263.747 27.5812C264.947 27.8654 266.005 28.2758 266.92 28.8126C267.836 29.3493 268.546 30.0913 269.052 31.0386C269.588 31.9542 269.857 33.154 269.857 34.638C269.857 37.3218 268.862 39.311 266.873 40.6055C264.915 41.8685 262.231 42.5 258.821 42.5Z" fill="#282328"/>
<path d="M279.31 42.5V36.36H277.09V35.21H282.89V36.36H280.63V42.5H279.31ZM283.807 42.5V35.21H285.847L287.587 40.39H287.637L289.367 35.21H291.407V42.5H290.117V39.35L290.147 36.6H290.077L288.167 42.5H287.047L285.147 36.6H285.077L285.097 39.37V42.5H283.807Z" fill="#282328"/>
</svg>
