<svg width="316" height="50" viewBox="0 0 316 50" fill="none" xmlns="http://www.w3.org/2000/svg">
<path d="M24.7982 29.3136V45.1042L33.371 49.9996V36.3048C33.371 28.9455 29.4009 22.1478 22.9653 18.4668L8.77148 10.3633V20.1542L24.8009 29.3109L24.7982 29.3136Z" fill="#282328"/>
<path d="M61.369 4.89543L52.8017 0L36.4545 9.34753L20.1101 0L11.5427 4.89543L26.0569 13.1897C32.4981 16.8707 40.4245 16.8707 46.8548 13.1897L61.369 4.89543Z" fill="#282328"/>
<path d="M48.1079 29.314V45.1046L39.5351 50V36.3052C39.5351 28.9459 43.5051 22.1482 49.9408 18.4672L64.1346 10.361V20.1519L48.1051 29.3086L48.1079 29.314Z" fill="#282328"/>
<path d="M290.067 47.358C281.175 47.358 275.115 40.9014 275.115 31.2164C275.115 21.4748 281.175 15.0749 290.067 15.0749C294.485 15.0749 298.676 17.1138 300.715 20.0589V6.80583H307.228V46.9049H300.715V42.4306C298.676 45.3191 294.428 47.358 290.067 47.358ZM291.2 41.7509C296.75 41.7509 300.715 37.5032 300.715 31.2164C300.715 24.9297 296.75 20.6819 291.2 20.6819C285.65 20.6819 281.685 24.9297 281.685 31.2164C281.685 37.5032 285.65 41.7509 291.2 41.7509Z" fill="#282328"/>
<path d="M263.444 46.9049V6.80583H269.957V46.9049H263.444Z" fill="#282328"/>
<path d="M242.221 47.358C232.876 47.358 226.136 40.6748 226.136 31.2164C226.136 21.758 232.876 15.0749 242.221 15.0749C251.566 15.0749 258.362 21.758 258.362 31.2164C258.362 40.6748 251.566 47.358 242.221 47.358ZM242.221 41.7509C247.828 41.7509 251.736 37.4465 251.736 31.2164C251.736 24.9863 247.828 20.6253 242.221 20.6253C236.67 20.6253 232.762 24.9863 232.762 31.2164C232.762 37.4465 236.67 41.7509 242.221 41.7509Z" fill="#282328"/>
<path d="M192.729 46.9049V6.80583H199.243V20.2855C201.168 17.3403 205.189 15.0749 209.72 15.0749C216.404 15.0749 221.444 19.4925 221.444 26.1757V46.9049H214.931V27.7616C214.931 23.5704 212.326 20.8518 208.248 20.8518C203.037 20.8518 199.243 24.9297 199.243 32.8589V46.9049H192.729Z" fill="#282328"/>
<path d="M172.993 47.358C163.421 47.358 157.191 40.6748 157.191 31.2164C157.191 21.758 163.421 15.0749 172.71 15.0749C182.508 15.0749 188.681 22.6642 187.379 32.4058H163.704C164.101 38.4093 167.612 41.8642 172.993 41.8642C177.127 41.8642 180.016 39.7686 180.639 36.7669H187.322C186.303 42.997 180.922 47.358 172.993 47.358ZM164.044 27.4784H180.696C180.582 23.0607 177.411 20.2855 172.71 20.2855C168.235 20.2855 165.12 22.9474 164.044 27.4784Z" fill="#282328"/>
<path d="M139.267 47.358C129.696 47.358 123.466 40.6748 123.466 31.2164C123.466 21.758 129.696 15.0749 138.984 15.0749C148.782 15.0749 154.956 22.6642 153.653 32.4058H129.979C130.375 38.4093 133.887 41.8642 139.267 41.8642C143.402 41.8642 146.29 39.7686 146.913 36.7669H153.597C152.577 42.997 147.197 47.358 139.267 47.358ZM130.319 27.4784H146.97C146.857 23.0607 143.685 20.2855 138.984 20.2855C134.51 20.2855 131.395 22.9474 130.319 27.4784Z" fill="#282328"/>
<path d="M103.499 46.9049V15.5279H110.012V20.512C111.655 17.3403 115.393 15.0749 119.244 15.0749C120.66 15.0749 122.02 15.3014 122.982 15.6979V21.9279C121.68 21.4748 120.264 21.1917 118.905 21.1917C113.977 21.1917 110.012 25.666 110.012 35.181V46.9049H103.499Z" fill="#282328"/>
<path d="M86.201 46.9049V20.7952H81.2169V15.5279H86.201V13.8288C86.201 7.48548 90.0523 3.8607 95.5461 3.8607C97.2452 3.8607 98.9444 4.14388 99.7373 4.48371V10.0341C98.8877 9.63769 97.8683 9.41114 96.8488 9.41114C94.47 9.41114 92.7143 10.9403 92.7143 14.2253V15.5279H99.6806V20.7952H92.7143V46.9049H86.201Z" fill="#282328"/>
</svg>
