<svg width="316" height="76" viewBox="0 0 316 76" fill="none" xmlns="http://www.w3.org/2000/svg">
<g clip-path="url(#clip0_381_11826)">
<path d="M146.792 54.7678V24.4285H152.896V28.4977C154.931 25.2663 158.322 23.5309 162.33 23.5309C168.557 23.5309 172.934 27.3008 172.934 34.4816V54.7678H166.707V35.0801C166.707 31.1904 164.857 28.5574 160.85 28.5574C156.719 28.5574 153.02 31.3102 153.02 37.8328V54.7678H146.792Z" fill="#282328"/>
<path d="M193.788 55.6653C184.786 55.6653 178.189 48.9034 178.189 39.5682C178.189 30.293 184.786 23.5309 193.788 23.5309C202.79 23.5309 209.387 30.293 209.387 39.5682C209.387 48.9034 202.79 55.6653 193.788 55.6653ZM193.788 50.6984C199.275 50.6984 203.036 46.6293 203.036 39.5682C203.036 32.5668 199.275 28.4977 193.788 28.4977C188.362 28.4977 184.54 32.5668 184.54 39.5682C184.54 46.6293 188.362 50.6984 193.788 50.6984Z" fill="#282328"/>
<path d="M225.098 55.6578C218.439 55.6578 214.617 51.5289 214.617 44.5275V24.421H220.782V43.8093C220.782 48.3572 222.694 50.5715 226.393 50.5715C229.969 50.5715 233.915 47.9385 233.915 41.4755V24.421H240.142V54.7604H234.038V50.751C232.189 54.1019 228.859 55.6578 225.098 55.6578Z" fill="#282328"/>
<path d="M259.888 55.6594C251.256 55.6594 245.953 51.4705 245.214 45.666H251.934C252.612 48.718 255.387 50.8723 260.073 50.8723C263.957 50.8723 266.731 49.1967 266.731 46.5637C266.731 44.2299 264.882 43.093 260.257 42.1356L256.558 41.3576C250.084 39.9213 246.385 37.5277 246.385 32.5609C246.385 27.5941 251.317 23.5848 258.778 23.5848C266.67 23.5848 271.17 27.7138 271.972 32.5609H265.93C265.067 29.9279 262.785 28.3123 258.716 28.3123C255.202 28.3123 252.735 29.8082 252.735 32.202C252.735 34.2963 254.277 35.1939 257.668 35.9719L261.737 36.9293C269.259 38.6049 273.082 40.9984 273.082 46.0252C273.082 51.7697 267.348 55.6594 259.888 55.6594Z" fill="#282328"/>
<path d="M77.5915 19.9744C77.5915 22.7556 77.5915 24.1463 78.1333 25.2086C78.6097 26.1431 79.37 26.9027 80.3052 27.3788C81.3684 27.9201 82.76 27.9201 85.5433 27.9201H86.7273C89.5108 27.9201 90.9025 27.9201 91.9656 28.4614C92.9008 28.9375 93.6609 29.6974 94.1375 30.6318C94.6791 31.6942 94.6791 33.0848 94.6791 35.866V42.573C94.6791 45.3545 94.6791 46.7451 95.2209 47.8073C95.6973 48.7419 96.4576 49.5015 97.3928 49.9776C98.456 50.5189 99.8476 50.5189 102.631 50.5189H103.312C106.096 50.5189 107.488 50.5189 108.551 49.9776C109.486 49.5015 110.246 48.7419 110.723 47.8073C111.264 46.7451 111.264 45.3545 111.264 42.573V35.866C111.264 33.0848 111.264 31.6942 110.723 30.6318C110.246 29.6974 109.486 28.9375 108.551 28.4614C107.488 27.9201 106.096 27.9201 103.312 27.9201H103.134C100.35 27.9201 98.9585 27.9201 97.8953 27.3788C96.9604 26.9027 96.2 26.1431 95.7234 25.2086C95.1819 24.1463 95.1819 22.7556 95.1819 19.9744V15.7782C95.1819 12.9969 95.1819 11.6063 95.7234 10.544C96.2 9.60951 96.9604 8.84979 97.8953 8.37366C98.9585 7.8324 100.35 7.8324 103.134 7.8324H103.815C106.598 7.8324 107.99 7.8324 109.053 8.37366C109.988 8.84979 110.749 9.60951 111.225 10.544C111.767 11.6063 111.767 12.9969 111.767 15.7782V19.9744C111.767 22.7556 111.767 24.1463 112.308 25.2086C112.785 26.1431 113.545 26.9027 114.481 27.3788C115.544 27.9201 116.935 27.9201 119.719 27.9201H120.903C123.686 27.9201 125.078 27.9201 126.141 28.4614C127.076 28.9375 127.836 29.6974 128.313 30.6318C128.855 31.6942 128.855 33.0848 128.855 35.866V42.573C128.855 45.3545 128.855 46.7451 128.313 47.8073C127.836 48.7419 127.076 49.5015 126.141 49.9776C125.078 50.5189 123.686 50.5189 120.903 50.5189H119.719C116.935 50.5189 115.544 50.5189 114.481 51.0602C113.545 51.5363 112.785 52.2961 112.308 53.2305C111.767 54.2927 111.767 55.6836 111.767 58.4648V62.6609C111.767 65.4421 111.767 66.8327 111.225 67.8951C110.749 68.8295 109.988 69.5893 109.053 70.0655C107.99 70.6068 106.598 70.6067 103.815 70.6067H102.129C99.3451 70.6067 97.9535 70.6068 96.8903 70.0655C95.9551 69.5893 95.1948 68.8295 94.7184 67.8951C94.1766 66.8327 94.1766 65.4421 94.1766 62.6609V58.4648C94.1766 55.6836 94.1766 54.2927 93.635 53.2305C93.1584 52.2961 92.3981 51.5363 91.4629 51.0602C90.4 50.5189 89.0081 50.5189 86.2248 50.5189H85.0408C82.2575 50.5189 80.8656 50.5189 79.8025 49.9776C78.8675 49.5015 78.1072 48.7419 77.6306 47.8073C77.089 46.7451 77.089 45.3545 77.089 42.573V35.866C77.089 33.0848 77.089 31.6942 76.5472 30.6318C76.0708 29.6974 75.3105 28.9375 74.3753 28.4614C73.3121 27.9201 71.9205 27.9201 69.1369 27.9201H68.4558C65.6723 27.9201 64.2806 27.9201 63.2175 28.4614C62.2823 28.9375 61.522 29.6974 61.0455 30.6318C60.5038 31.6942 60.5038 33.0848 60.5038 35.866V42.573C60.5038 45.3545 60.5038 46.7451 61.0455 47.8073C61.522 48.7419 62.2823 49.5015 63.2175 49.9776C64.2806 50.5189 65.6723 50.5189 68.4558 50.5189H68.6344C71.418 50.5189 72.8096 50.5189 73.8728 51.0602C74.808 51.5363 75.5681 52.2961 76.0447 53.2305C76.5863 54.2927 76.5862 55.6836 76.5862 58.4648V62.6609C76.5862 65.4421 76.5863 66.8327 76.0447 67.8951C75.5681 68.8295 74.808 69.5893 73.8728 70.0655C72.8096 70.6068 71.418 70.6067 68.6344 70.6067H67.9532C65.1697 70.6067 63.778 70.6068 62.7149 70.0655C61.7797 69.5893 61.0194 68.8295 60.5429 67.8951C60.0013 66.8327 60.0013 65.4421 60.0013 62.6609V58.4648C60.0013 55.6836 60.0013 54.2927 59.4596 53.2305C58.9831 52.2961 58.2228 51.5363 57.2876 51.0602C56.2245 50.5189 54.8328 50.5189 52.0494 50.5189H50.8655C48.0821 50.5189 46.6903 50.5189 45.6272 49.9776C44.6921 49.5015 43.9318 48.7419 43.4553 47.8073C42.9136 46.7451 42.9136 45.3545 42.9136 42.573V35.866C42.9136 33.0848 42.9136 31.6942 43.4553 30.6318C43.9318 29.6974 44.6921 28.9375 45.6272 28.4614C46.6903 27.9201 48.0821 27.9201 50.8655 27.9201H52.0494C54.8328 27.9201 56.2245 27.9201 57.2876 27.3788C58.2228 26.9027 58.9831 26.1431 59.4596 25.2086C60.0013 24.1463 60.0013 22.7556 60.0013 19.9744V15.7782C60.0013 12.9969 60.0013 11.6063 60.5429 10.544C61.0194 9.60951 61.7797 8.84979 62.7149 8.37366C63.778 7.8324 65.1697 7.8324 67.9532 7.8324H69.6397C72.423 7.8324 73.8149 7.8324 74.8778 8.37366C75.813 8.84979 76.5733 9.60951 77.05 10.544C77.5915 11.6063 77.5915 12.9969 77.5915 15.7782V19.9744Z" fill="#282328"/>
</g>
<defs>
<clipPath id="clip0_381_11826">
<rect width="230.172" height="75" fill="white" transform="translate(42.9138 0.5)"/>
</clipPath>
</defs>
</svg>
