<svg width="316" height="54" viewBox="0 0 316 54" fill="none" xmlns="http://www.w3.org/2000/svg">
<path fill-rule="evenodd" clip-rule="evenodd" d="M81.5242 20.3156C81.5241 17.7692 79.4607 15.7058 76.9162 15.7051C74.3711 15.7051 72.3058 17.7688 72.3057 20.3156C72.3057 22.8625 74.3711 24.9261 76.9162 24.9261C79.4608 24.9254 81.5242 22.862 81.5242 20.3156ZM102.992 26C102.992 40.3592 91.3526 52 76.9949 52C62.6378 51.9994 51 40.3588 51 26C51.0003 11.6414 62.6379 0.000559085 76.9949 0C91.3524 0 102.992 11.641 102.992 26ZM86.7237 20.3156C86.7237 25.7327 82.3333 30.1249 76.9162 30.1256C71.4985 30.1256 67.1062 25.7331 67.1062 20.3156C67.1064 14.8982 71.4986 10.5056 76.9162 10.5056C82.3333 10.5063 86.7235 14.8986 86.7237 20.3156ZM84.7967 33.7967V38.9962H69.1982V33.7967H84.7967Z" fill="#282328"/>
<path opacity="0.95" d="M131.342 44.3C121.192 44.3 114.692 36.3 114.692 25.85C114.692 15.35 121.192 7.35 131.342 7.35C141.492 7.35 147.842 15.35 147.842 25.85C147.842 36.3 141.492 44.3 131.342 44.3ZM131.342 39.05C138.292 39.05 141.592 32.65 141.592 25.85C141.592 19 138.292 12.6 131.342 12.6C124.392 12.6 120.992 19 120.992 25.85C120.992 32.6 124.392 39.05 131.342 39.05ZM150.015 43.5V18.15H156.065V21.45H156.115C157.615 18.75 160.115 17.8 162.765 17.8C163.215 17.8 163.615 17.8 164.015 17.85V23.1C163.415 23 162.765 22.95 162.215 22.95C158.665 22.95 156.165 24.5 156.165 29.9V43.5H150.015ZM178.242 44.3C175.192 44.3 172.542 43.1 171.092 40.95H171.042V43.5H165.142V8.05H171.292V20.7H171.342C172.542 18.65 175.242 17.35 178.242 17.35C185.242 17.35 189.692 22.6 189.692 30.8C189.692 38.95 185.242 44.3 178.242 44.3ZM177.042 39.5C180.942 39.5 183.442 36 183.442 30.75C183.442 25.45 180.942 22.2 177.042 22.2C173.242 22.2 171.242 24.75 171.242 28.15V33.2C171.242 36.7 173.242 39.5 177.042 39.5ZM194.792 43.5L207.692 8.05H214.992L227.892 43.5H221.292L218.492 35.15H204.042L201.292 43.5H194.792ZM205.842 29.95H216.792L211.342 13.9H211.242L205.842 29.95ZM241.542 17.35C248.542 17.35 252.992 22.7 252.992 30.85C252.992 39.05 248.542 44.3 241.592 44.3C238.592 44.3 235.892 43.05 234.692 40.95H234.642V53.6H228.442V18.15H234.342V20.7H234.392C235.842 18.55 238.542 17.35 241.542 17.35ZM240.342 22.15C236.492 22.15 234.542 24.95 234.542 28.45V33.5C234.542 36.9 236.492 39.45 240.342 39.45C244.242 39.45 246.742 36.2 246.742 30.9C246.742 25.65 244.242 22.15 240.342 22.15ZM268.144 17.35C275.144 17.35 279.594 22.7 279.594 30.85C279.594 39.05 275.144 44.3 268.194 44.3C265.194 44.3 262.494 43.05 261.294 40.95H261.244V53.6H255.044V18.15H260.944V20.7H260.994C262.444 18.55 265.144 17.35 268.144 17.35ZM266.944 22.15C263.094 22.15 261.144 24.95 261.144 28.45V33.5C261.144 36.9 263.094 39.45 266.944 39.45C270.844 39.45 273.344 36.2 273.344 30.9C273.344 25.65 270.844 22.15 266.944 22.15Z" fill="#282328"/>
</svg>
