<svg width="314" height="50" viewBox="0 0 314 50" fill="none" xmlns="http://www.w3.org/2000/svg">
<g clip-path="url(#clip0_381_11980)">
<mask id="mask0_381_11980" style="mask-type:luminance" maskUnits="userSpaceOnUse" x="85" y="0" width="144" height="50">
<path d="M228.321 0H85.6743V50H228.321V0Z" fill="white"/>
</mask>
<g mask="url(#mask0_381_11980)">
<path d="M174.652 5.37708H162.814V49.4443H174.652V5.37708Z" fill="#282328"/>
<path d="M209.965 22.5506C209.237 21.1922 208.209 20.0194 206.959 19.1228C205.516 18.0712 203.896 17.2896 202.176 16.8156C200.116 16.2288 197.982 15.9424 195.84 15.9653C192.568 15.9653 189.838 16.4816 187.648 17.5144C185.458 18.5471 183.793 19.9094 182.652 21.6014C181.534 23.2503 180.872 25.1663 180.73 27.1551H191.626C191.662 26.7099 191.794 26.2778 192.011 25.8878C192.228 25.4978 192.526 25.1589 192.884 24.894C193.706 24.3625 194.673 24.0999 195.65 24.1425C196.543 24.1029 197.428 24.3437 198.179 24.8314C198.498 25.0486 198.757 25.3446 198.929 25.6909C199.102 26.0372 199.183 26.4222 199.165 26.809V26.8947C199.172 27.1917 199.107 27.4859 198.976 27.7523C198.845 28.0187 198.651 28.2492 198.412 28.424C197.913 28.7954 197.098 29.0887 195.968 29.3041C194.838 29.5194 193.359 29.6919 191.531 29.8215C189.921 29.9339 188.329 30.2145 186.778 30.6587C185.398 31.0497 184.099 31.6836 182.941 32.5308C181.836 33.3552 180.951 34.441 180.366 35.6917C179.718 37.141 179.404 38.7181 179.446 40.3061C179.446 42.5033 179.904 44.3106 180.819 45.7279C181.729 47.146 183.045 48.2556 184.593 48.9119C187.624 50.0902 190.949 50.2771 194.093 49.4458C195.258 49.1206 196.344 48.5598 197.285 47.7978C198.28 46.9754 199.097 45.9582 199.687 44.8083H199.946V49.4458H211.012V26.809C211.025 25.3238 210.665 23.8592 209.965 22.5506ZM199.263 37.7418C199.29 38.6529 199.026 39.5489 198.511 40.2994C198.015 41.0017 197.341 41.5591 196.559 41.9144C195.769 42.2886 194.904 42.4801 194.03 42.4748C193.15 42.5118 192.282 42.2544 191.563 41.7431C191.243 41.4971 190.988 41.1763 190.82 40.8086C190.651 40.441 190.575 40.0376 190.598 39.6336C190.591 39.0897 190.732 38.5542 191.005 38.0845C191.322 37.5825 191.766 37.1741 192.293 36.9013C192.996 36.5335 193.759 36.2936 194.546 36.1927C195.017 36.1201 195.467 36.0411 195.896 35.9553C196.34 35.8697 196.754 35.7741 197.141 35.6752C197.529 35.5763 197.913 35.4675 198.254 35.3456C198.596 35.2236 198.948 35.1083 199.263 34.9797V37.7418Z" fill="#282328"/>
<path d="M216.485 49.4217V17.7572H228.31V49.4217H216.485ZM222.397 10.8588C220.871 10.8873 219.394 10.316 218.281 9.26678C217.738 8.78987 217.303 8.20083 217.007 7.5398C216.711 6.87879 216.561 6.16147 216.567 5.43685C216.561 4.71228 216.711 3.99502 217.008 3.33405C217.303 2.67308 217.738 2.08396 218.281 1.60692C219.41 0.582291 220.878 0.0148926 222.399 0.0148926C223.921 0.0148926 225.389 0.582291 226.516 1.60692C227.06 2.08396 227.494 2.67308 227.791 3.33405C228.086 3.99502 228.236 4.71228 228.231 5.43685C228.237 6.16147 228.087 6.87879 227.791 7.5398C227.495 8.20083 227.06 8.78987 226.516 9.26678C225.405 10.3163 223.927 10.8847 222.4 10.8488L222.397 10.8588Z" fill="#282328"/>
<path d="M141.559 50.0052C138.056 50.0052 135.025 49.3307 132.467 47.9815C129.978 46.6595 127.94 44.6209 126.614 42.1279C125.258 39.5768 124.579 36.5214 124.577 32.9617C124.577 29.547 125.264 26.5631 126.637 24.0098C127.961 21.5045 129.978 19.4355 132.444 18.0507C134.945 16.629 137.901 15.9193 141.313 15.9215C143.616 15.8886 145.905 16.2819 148.066 17.0817C150.016 17.8135 151.781 18.9669 153.237 20.4601C154.696 21.9848 155.816 23.8038 156.521 25.7962C157.323 28.0684 157.716 30.4657 157.681 32.876V35.6315H136.067V29.089H146.785C146.79 28.2036 146.537 27.3362 146.056 26.5939C145.603 25.8648 144.957 25.2761 144.19 24.8931C143.38 24.4692 142.477 24.2551 141.563 24.2702C140.649 24.2623 139.748 24.476 138.935 24.8931C138.159 25.2761 137.494 25.854 137.007 26.5708C136.524 27.3222 136.264 28.1952 136.254 29.089V36.1456C136.234 37.1328 136.46 38.1093 136.911 38.9868C137.344 39.812 138.007 40.4926 138.82 40.9445C139.741 41.442 140.776 41.6876 141.822 41.6565C142.578 41.6656 143.331 41.5487 144.049 41.3104C144.697 41.105 145.296 40.7684 145.81 40.3216C146.29 39.886 146.658 39.3396 146.881 38.7297H157.691C157.364 40.9237 156.457 42.9897 155.063 44.7119C153.572 46.4611 151.668 47.8073 149.525 48.6275C147.261 49.5437 144.605 50.003 141.559 50.0052Z" fill="#282328"/>
<path d="M85.6743 49.4443V5.37708H104.631C107.889 5.37708 110.741 5.97255 113.187 7.16349C115.55 8.2791 117.533 10.0672 118.89 12.3052C120.25 14.5421 120.929 17.225 120.926 20.354C120.924 23.483 120.224 26.1484 118.827 28.3501C117.411 30.5387 115.37 32.2479 112.971 33.2545C110.472 34.3531 107.549 34.9025 104.2 34.9025H97.5717V25.6045H101.799C103.013 25.6318 104.223 25.4569 105.38 25.087C106.309 24.7836 107.115 24.187 107.679 23.3863C108.257 22.4848 108.542 21.4251 108.494 20.354C108.541 19.2681 108.255 18.1937 107.676 17.2756C107.121 16.452 106.314 15.8328 105.376 15.5122C104.229 15.0957 103.015 14.8979 101.796 14.9288H97.598V49.4443H85.6743ZM113.463 33.004L122.385 49.4443H109.449L101.724 34.8992" fill="#282328"/>
</g>
</g>
<defs>
<clipPath id="clip0_381_11980">
<rect width="143.75" height="50" fill="white" transform="translate(85.125)"/>
</clipPath>
</defs>
</svg>
