<svg width="316" height="54" viewBox="0 0 316 54" fill="none" xmlns="http://www.w3.org/2000/svg">
<circle cx="78" cy="27" r="27" fill="#282328"/>
<path d="M91.6797 23.1306L80.5781 30.4441V43.2029H75.4365V30.5408L64.1895 23.1306L67.0713 19.033L77.9346 26.032L88.7979 19.033L91.6797 23.1306ZM78.0068 13.0173C80.0852 13.0176 81.8838 14.7026 81.8838 16.781C81.8838 18.8594 80.0852 20.5445 78.0068 20.5447C75.9283 20.5447 74.1299 18.8596 74.1299 16.781C74.1299 14.7019 75.9283 13.0173 78.0068 13.0173Z" fill="white"/>
<path opacity="0.95" d="M123.95 44.5L115.45 9.05H121.9L128.1 37.5L134.45 9.05H142.4L148.8 37.5L155.05 9.05H161.5L152.9 44.5H144.9L138.4 16.45L131.9 44.5H123.95ZM171.621 45.3C163.421 45.3 159.021 39.25 159.021 31.85C159.021 24.4 163.421 18.35 171.621 18.35C179.821 18.35 184.171 24.4 184.171 31.85C184.171 39.25 179.821 45.3 171.621 45.3ZM171.621 40.6C175.971 40.6 177.921 36.5 177.921 31.85C177.921 27.2 175.921 23.05 171.621 23.05C167.221 23.05 165.271 27.2 165.271 31.85C165.271 36.5 167.271 40.6 171.621 40.6ZM186.192 44.5V19.15H192.242V22.45H192.292C193.792 19.75 196.292 18.8 198.942 18.8C199.392 18.8 199.792 18.8 200.192 18.85V24.1C199.592 24 198.942 23.95 198.392 23.95C194.842 23.95 192.342 25.5 192.342 30.9V44.5H186.192ZM201.319 44.5V9.05H207.469V44.5H201.319ZM221.077 45.3C214.077 45.3 209.627 39.95 209.627 31.8C209.627 23.6 214.077 18.35 221.027 18.35C224.027 18.35 226.727 19.6 227.927 21.7H227.977V9.05H234.177V44.5H228.277V41.95H228.227C226.777 44.1 224.077 45.3 221.077 45.3ZM222.277 40.5C226.127 40.5 228.077 37.7 228.077 34.2V29.15C228.077 25.75 226.127 23.2 222.277 23.2C218.377 23.2 215.877 26.45 215.877 31.75C215.877 37 218.377 40.5 222.277 40.5ZM245.241 44.5V9.05H251.391V44.5H245.241ZM255.339 44.5V9.05H267.789C281.539 9.05 284.589 18.8 284.589 26.8C284.589 34.75 281.539 44.5 267.789 44.5H255.339ZM267.839 39.15C274.689 39.15 278.339 35.2 278.339 26.8C278.339 18.35 274.689 14.4 267.839 14.4H261.489V39.15H267.839Z" fill="#282328"/>
</svg>
