<svg width="316" height="54" viewBox="0 0 316 54" fill="none" xmlns="http://www.w3.org/2000/svg">
<path d="M78.001 0C82.8768 3.52402e-05 87.3712 1.24188 91.5225 3.6377C95.6735 6.07844 98.9254 9.32837 101.363 13.4795C103.801 17.6307 105.001 22.1214 105.001 27C105.001 31.8788 103.801 36.3702 101.363 40.5215C98.9226 44.6726 95.6735 47.9254 91.5225 50.3633C87.3712 52.8012 82.8797 54.0009 78.001 54.001C73.1222 54.001 68.6308 52.8013 64.4795 50.3633C60.3282 47.9225 57.0757 44.6728 54.6377 40.5215C52.1997 36.3702 51.001 31.8787 51.001 27C51.001 22.1215 52.1999 17.6278 54.6377 13.4795C57.0784 9.32827 60.3283 6.07566 64.4795 3.6377C68.6308 1.19972 73.125 0 78.001 0ZM57.1182 29.8262C57.4609 32.6488 58.3597 35.3033 59.7725 37.7412C61.6122 40.9907 64.1794 43.5577 67.3896 45.4844C70.6 47.4111 74.1503 48.3525 78.001 48.3525C81.8517 48.3525 85.402 47.4111 88.6123 45.4844V45.5293C90.1935 44.5884 91.6061 43.4759 92.8896 42.1924H79.4111C76.33 42.1924 73.5912 41.5492 71.1953 40.2656C68.7995 38.982 66.9146 37.1845 65.5889 34.96C64.6481 33.376 64.0466 31.6657 63.791 29.8262H57.1182ZM179.148 11.127C182.23 11.127 185.01 11.8548 187.493 13.2676C189.976 14.7225 191.9 16.6071 193.312 19.0449C194.722 21.4407 195.408 24.1371 195.408 27.0469C195.408 29.9567 194.725 32.6081 193.312 35.0488C191.9 37.4895 189.976 39.4134 187.493 40.8262C185.01 42.2389 182.185 42.9668 179.148 42.9668C176.112 42.9668 173.374 42.239 170.891 40.8262C168.408 39.3713 166.484 37.4867 165.071 35.0488C163.661 32.653 162.976 29.9567 162.976 27.0469C162.976 24.137 163.659 21.4857 165.071 19.0449C166.484 16.6042 168.408 14.6804 170.891 13.2676C173.329 11.8548 176.067 11.127 179.148 11.127ZM265.023 0.382812V42.1426H258.05V38.25C257.794 38.5897 257.581 38.932 257.28 39.2324C256.21 40.4317 254.884 41.3275 253.3 41.9707C251.674 42.611 251.118 42.9541 248.079 42.9541C245.04 42.9541 242.346 42.2692 240.034 40.9014C237.726 39.5336 235.928 37.6487 234.645 35.2109C233.406 32.8151 232.763 30.034 232.763 27.0371C232.763 24.0402 233.406 21.3012 234.689 18.8633C235.973 16.4255 237.768 14.5406 240.079 13.1729C242.433 11.8051 245.216 11.1202 248.081 11.1201C250.946 11.1201 253.387 11.848 255.482 13.2607C256.51 13.9882 257.365 14.8023 258.008 15.7432V0.382812H265.023ZM137.727 11.4629C139.139 11.463 140.378 11.8478 141.363 12.6621C142.346 13.4738 143.031 14.5444 143.374 15.915L148.487 35.6016L154.713 11.9346H161.988L154.371 37.9072C153.43 41.1176 151.632 42.6992 148.593 42.6992C145.554 42.6991 143.63 41.1147 142.815 37.9072L137.724 18.0107L132.637 37.9072C131.825 41.1175 129.898 42.6991 126.859 42.6992C123.82 42.6992 122.026 41.1148 121.082 37.9072L113.465 11.9346H120.739L126.964 35.6016L132.078 15.915C132.421 14.5472 133.106 13.4766 134.089 12.6621C135.072 11.8505 136.314 11.4629 137.727 11.4629ZM227.542 31.6631C227.542 33.285 227.881 34.4413 228.523 35.2109H228.488C229.129 35.9832 230.283 36.4101 231.867 36.4102V42.3135H231.182C227.629 42.3134 224.977 41.544 223.222 39.96C221.467 38.3787 220.568 35.8959 220.568 32.5596V0.382812H227.542V31.6631ZM216.373 18.5361H216.201C213.033 18.5783 210.637 19.3897 208.927 20.9736C207.258 22.5549 206.401 25.1226 206.401 28.7178V42.1523H199.428V11.9443H206.317V17.8477C206.961 16.1344 207.944 14.7242 209.356 13.6963V13.7021C211.28 12.2894 213.55 11.5625 216.159 11.5625H216.373V18.5361ZM248.894 17.2012C247.054 17.2012 245.469 17.6278 244.102 18.4844C242.734 19.3382 241.664 20.5381 240.937 22.0352C240.209 23.5322 239.824 25.2004 239.824 27.04C239.824 28.8797 240.209 30.5479 240.937 32.0449C241.664 33.542 242.734 34.739 244.102 35.5957C245.469 36.4523 247.099 36.8789 248.894 36.8789C250.688 36.8789 252.314 36.4493 253.727 35.5957C255.139 34.7418 256.252 33.542 257.021 32.0449C257.791 30.5479 258.176 28.8797 258.176 27.04C258.176 25.2004 257.791 23.5322 257.021 22.0352C256.21 20.5381 255.139 19.341 253.727 18.4844C252.359 17.6279 250.733 17.2012 248.894 17.2012ZM179.235 17.3311C177.438 17.3311 175.853 17.7586 174.485 18.6152C173.115 19.469 172.003 20.6262 171.233 22.123C170.464 23.6201 170.079 25.2043 170.079 27.0439C170.079 28.8836 170.464 30.5519 171.233 32.0068C172.003 33.4616 173.118 34.616 174.485 35.4727C175.856 36.3293 177.48 36.7568 179.235 36.7568C180.991 36.7568 182.617 36.3292 183.984 35.4727C185.355 34.616 186.468 33.4619 187.237 31.9648C188.007 30.4678 188.392 28.8836 188.392 27.0439C188.392 25.2043 188.007 23.536 187.237 22.0811C186.468 20.6261 185.352 19.4719 183.984 18.6152C182.614 17.7587 181.033 17.3311 179.235 17.3311ZM69.7852 29.7812C70.2149 31.4917 71.027 32.9462 72.3105 34.1455C74.1923 35.8981 76.63 36.7548 79.6689 36.7549H96.7402C97.8524 34.5726 98.5803 32.2641 98.8809 29.7812H69.7852ZM228.525 35.2129L228.523 35.2109H228.53L228.525 35.2129ZM78.001 5.64844C74.1504 5.64844 70.5999 6.58899 67.3896 8.51562C64.1793 10.4396 61.6543 13.0073 59.7725 16.2598L59.7754 16.2627V16.3047C58.3205 18.7875 57.4638 21.481 57.1211 24.3486H63.7939C64.0523 22.5091 64.651 20.7988 65.5918 19.2148C66.9203 16.9482 68.8024 15.1928 71.1982 13.9092C73.594 12.6257 76.3321 11.9825 79.4131 11.9824H93.0186C91.735 10.6567 90.2385 9.49867 88.6123 8.51562C85.402 6.5889 81.8516 5.64847 78.001 5.64844ZM79.6689 17.3271C76.6328 17.3272 74.1502 18.2261 72.3105 19.9814C71.0699 21.18 70.2133 22.6337 69.8281 24.3008H98.9229C98.6672 21.8209 97.9823 19.5094 96.8701 17.3271H79.6689Z" fill="#282328"/>
</svg>
