<svg width="314" height="52" viewBox="0 0 314 52" fill="none" xmlns="http://www.w3.org/2000/svg">
<path d="M63.5 26C63.5 40.3595 51.8588 52 37.4987 52C33.5178 51.9998 29.7419 51.1025 26.3644 49.4993L11.6117 51.901L14.0011 37.1352C12.3988 33.7575 11.5 29.9794 11.5 26C11.5003 11.6411 23.1393 0.000558666 37.4987 0C51.8586 0 63.4997 11.6407 63.5 26Z" fill="#282328"/>
<path opacity="0.95" d="M84.45 43.5L75.95 8.05H82.4L88.6 36.5L94.95 8.05H102.9L109.3 36.5L115.55 8.05H122L113.4 43.5H105.4L98.9 15.45L92.4 43.5H84.45ZM132.121 44.3C123.921 44.3 119.521 38.25 119.521 30.85C119.521 23.4 123.921 17.35 132.121 17.35C140.321 17.35 144.671 23.4 144.671 30.85C144.671 38.25 140.321 44.3 132.121 44.3ZM132.121 39.6C136.471 39.6 138.421 35.5 138.421 30.85C138.421 26.2 136.421 22.05 132.121 22.05C127.721 22.05 125.771 26.2 125.771 30.85C125.771 35.5 127.771 39.6 132.121 39.6ZM146.692 43.5V18.15H152.742V21.45H152.792C154.292 18.75 156.792 17.8 159.442 17.8C159.892 17.8 160.292 17.8 160.692 17.85V23.1C160.092 23 159.442 22.95 158.892 22.95C155.342 22.95 152.842 24.5 152.842 29.9V43.5H146.692ZM161.819 43.5V8.05H167.969V43.5H161.819ZM181.577 44.3C174.577 44.3 170.127 38.95 170.127 30.8C170.127 22.6 174.577 17.35 181.527 17.35C184.527 17.35 187.227 18.6 188.427 20.7H188.477V8.05H194.677V43.5H188.777V40.95H188.727C187.277 43.1 184.577 44.3 181.577 44.3ZM182.777 39.5C186.627 39.5 188.577 36.7 188.577 33.2V28.15C188.577 24.75 186.627 22.2 182.777 22.2C178.877 22.2 176.377 25.45 176.377 30.75C176.377 36 178.877 39.5 182.777 39.5ZM220.791 44.3C210.641 44.3 204.291 36.9 204.291 25.85C204.291 14.75 210.691 7.35 220.791 7.35C228.541 7.35 233.891 11.75 234.991 18.75H228.741C228.141 15.25 225.041 12.6 220.791 12.6C213.341 12.6 210.591 19.05 210.591 25.85C210.591 32.5 213.341 39.05 220.791 39.05C225.091 39.05 228.241 36.2 228.841 32.6H235.141C233.991 39.6 228.791 44.3 220.791 44.3ZM236.927 43.5V8.05H242.927V21.05H242.977C244.677 18.65 247.277 17.35 250.727 17.35C256.127 17.35 259.527 20.75 259.527 26.25V43.5H253.327V27.35C253.327 24.25 251.627 22.35 248.827 22.35C244.227 22.35 243.127 26.35 243.127 29.4V43.5H236.927ZM271.097 44.3C263.647 44.3 261.197 39.55 261.197 36.25C261.197 31.35 264.947 29.5 270.347 28.5L276.547 27.35C277.947 27.1 278.247 26.35 278.247 25.35C278.247 23.5 276.597 22 273.297 22C270.547 22 268.247 23.3 268.097 25.95H261.797C262.097 19.9 268.147 17.35 273.247 17.35C278.397 17.35 284.247 19.3 284.247 26.25V39.6C284.247 41.55 284.497 42.55 285.047 43.25L284.997 43.5H278.947C278.847 43.25 278.547 42.45 278.547 40.6H278.497C277.547 42.6 274.797 44.3 271.097 44.3ZM271.947 39.6C275.197 39.6 278.247 37.55 278.247 34.25V31.2C275.947 31.65 273.847 32.15 271.697 32.65C269.697 33.15 267.447 33.75 267.447 36.1C267.447 38.15 268.947 39.6 271.947 39.6ZM296.601 43.5C292.851 43.5 289.051 43.5 289.051 37.05V22.85H284.901V18.15H289.051V11.3H295.251V18.15H300.401V22.85H295.251V36.6C295.251 38.55 296.151 38.8 297.551 38.8H300.501V43.5H296.601Z" fill="#282328"/>
</svg>
