<svg width="335" height="55" viewBox="0 0 335 55" fill="none" xmlns="http://www.w3.org/2000/svg">
<path d="M27 0C31.8759 3.52402e-05 36.3702 1.24188 40.5215 3.6377C44.6725 6.07844 47.9244 9.32837 50.3623 13.4795C52.8002 17.6307 54 22.1214 54 27C54 31.8788 52.8003 36.3702 50.3623 40.5215C47.9216 44.6726 44.6725 47.9254 40.5215 50.3633C36.3702 52.8012 31.8787 54.0009 27 54.001C22.1212 54.001 17.6298 52.8013 13.4785 50.3633C9.32725 47.9225 6.07468 44.6728 3.63672 40.5215C1.19877 36.3702 0 31.8787 0 27C4.97531e-05 22.1215 1.19893 17.6278 3.63672 13.4795C6.07746 9.32827 9.32733 6.07566 13.4785 3.6377C17.6298 1.19972 22.1241 0 27 0ZM6.11719 29.8262C6.45988 32.6488 7.35875 35.3033 8.77148 37.7412C10.6112 40.9907 13.1784 43.5577 16.3887 45.4844C19.599 47.4111 23.1493 48.3525 27 48.3525C30.8507 48.3525 34.401 47.4111 37.6113 45.4844V45.5293C39.1926 44.5884 40.6051 43.4759 41.8887 42.1924H28.4102C25.329 42.1924 22.5902 41.5492 20.1943 40.2656C17.7985 38.982 15.9136 37.1845 14.5879 34.96C13.6471 33.376 13.0456 31.6657 12.79 29.8262H6.11719ZM18.7842 29.7812C19.2139 31.4917 20.026 32.9462 21.3096 34.1455C23.1914 35.8981 25.629 36.7548 28.668 36.7549H45.7393C46.8515 34.5726 47.5793 32.2641 47.8799 29.7812H18.7842ZM27 5.64844C23.1494 5.64844 19.5989 6.58899 16.3887 8.51562C13.1783 10.4396 10.6533 13.0073 8.77148 16.2598L8.77441 16.2627V16.3047C7.31954 18.7875 6.4628 21.481 6.12012 24.3486H12.793C13.0514 22.5091 13.65 20.7988 14.5908 19.2148C15.9193 16.9482 17.8014 15.1928 20.1973 13.9092C22.593 12.6257 25.3311 11.9825 28.4121 11.9824H42.0176C40.734 10.6567 39.2376 9.49867 37.6113 8.51562C34.401 6.5889 30.8507 5.64847 27 5.64844ZM28.668 17.3271C25.6319 17.3272 23.1492 18.2261 21.3096 19.9814C20.0689 21.18 19.2123 22.6337 18.8271 24.3008H47.9219C47.6663 21.8209 46.9813 19.5094 45.8691 17.3271H28.668Z" fill="#282328"/>
<path opacity="0.95" d="M72.95 44.5005L64.45 9.05049H70.9L77.1 37.5005L83.45 9.05049H91.4L97.8 37.5005L104.05 9.05049H110.5L101.9 44.5005H93.9L87.4 16.4505L80.9 44.5005H72.95ZM120.621 45.3005C112.421 45.3005 108.021 39.2505 108.021 31.8505C108.021 24.4005 112.421 18.3505 120.621 18.3505C128.821 18.3505 133.171 24.4005 133.171 31.8505C133.171 39.2505 128.821 45.3005 120.621 45.3005ZM120.621 40.6005C124.971 40.6005 126.921 36.5005 126.921 31.8505C126.921 27.2005 124.921 23.0505 120.621 23.0505C116.221 23.0505 114.271 27.2005 114.271 31.8505C114.271 36.5005 116.271 40.6005 120.621 40.6005ZM135.192 44.5005V19.1505H141.242V22.4505H141.292C142.792 19.7505 145.292 18.8005 147.942 18.8005C148.392 18.8005 148.792 18.8005 149.192 18.8505V24.1005C148.592 24.0005 147.942 23.9505 147.392 23.9505C143.842 23.9505 141.342 25.5005 141.342 30.9005V44.5005H135.192ZM150.319 44.5005V9.05049H156.469V44.5005H150.319ZM170.077 45.3005C163.077 45.3005 158.627 39.9505 158.627 31.8005C158.627 23.6005 163.077 18.3505 170.027 18.3505C173.027 18.3505 175.727 19.6005 176.927 21.7005H176.977V9.05049H183.177V44.5005H177.277V41.9505H177.227C175.777 44.1005 173.077 45.3005 170.077 45.3005ZM171.277 40.5005C175.127 40.5005 177.077 37.7005 177.077 34.2005V29.1505C177.077 25.7505 175.127 23.2005 171.277 23.2005C167.377 23.2005 164.877 26.4505 164.877 31.7505C164.877 37.0005 167.377 40.5005 171.277 40.5005ZM194.241 44.5005V9.05049H203.691L212.841 37.3005L221.941 9.05049H231.441V44.5005H225.241V16.4005L215.941 44.5005H209.741L200.391 16.3505V44.5005H194.241ZM246.05 45.3005C237.85 45.3005 233.45 39.2505 233.45 31.8505C233.45 24.4005 237.85 18.3505 246.05 18.3505C254.25 18.3505 258.6 24.4005 258.6 31.8505C258.6 39.2505 254.25 45.3005 246.05 45.3005ZM246.05 40.6005C250.4 40.6005 252.35 36.5005 252.35 31.8505C252.35 27.2005 250.35 23.0505 246.05 23.0505C241.65 23.0505 239.7 27.2005 239.7 31.8505C239.7 36.5005 241.7 40.6005 246.05 40.6005ZM260.622 44.5005V19.1505H266.622V22.0505H266.672C268.372 19.6005 270.972 18.3505 274.372 18.3505C279.772 18.3505 283.172 21.7505 283.172 27.2505V44.5005H276.972V28.3505C276.972 25.2005 275.272 23.3505 272.472 23.3505C267.872 23.3505 266.772 27.3005 266.772 30.4005V44.5005H260.622ZM297.693 45.3005C289.693 45.3005 284.993 39.8505 284.993 31.8005C284.993 24.7005 289.193 18.3505 297.693 18.3505C306.143 18.3505 309.943 24.7005 309.943 32.0505V33.3005H291.293C291.393 36.7505 292.793 40.6005 297.643 40.6005C299.493 40.6005 302.193 40.0005 303.243 36.9005H309.543C308.193 42.5005 303.693 45.3005 297.693 45.3005ZM303.393 28.9505C303.043 25.5505 301.193 23.0505 297.643 23.0505C293.893 23.0505 291.843 25.6005 291.543 28.9505H303.393ZM311.741 54.6005V49.9505H314.441C316.241 49.9505 317.041 49.0505 318.341 44.5505L308.341 19.1505H314.641L321.441 37.5505L328.191 19.1505H334.491L322.841 48.9505C321.241 53.1505 319.441 54.6005 315.991 54.6005H311.741Z" fill="#282328"/>
</svg>
