<svg width="47" height="47" viewBox="0 0 47 47" fill="none" xmlns="http://www.w3.org/2000/svg">
<path d="M35.2681 3.16575C31.655 1.08051 27.7437 0 23.4998 0C19.256 0 15.3447 1.04384 11.7316 3.16575C8.11849 5.28766 5.29009 8.11851 3.16574 11.7316C1.04384 15.3423 0 19.2536 0 23.4999C0 27.7462 1.04384 31.6551 3.16574 35.2682C5.28765 38.8813 8.11849 41.7097 11.7316 43.8341C15.3447 45.956 19.2536 46.9998 23.4998 46.9998C27.7461 46.9998 31.655 45.956 35.2681 43.8341C38.8812 41.7122 41.7096 38.8813 43.834 35.2682C45.9559 31.6551 46.9997 27.7462 46.9997 23.4999C46.9997 19.2536 45.9559 15.3447 43.834 11.7316C41.712 8.11851 38.8812 5.29011 35.2681 3.16575ZM24.9519 31.99C22.3069 31.99 20.185 31.2444 18.5471 29.719C17.4299 28.6751 16.7234 27.4088 16.3494 25.9201H41.6729C41.4114 28.0811 40.7782 30.0905 39.8102 31.99H24.9128H24.9495H24.9519ZM16.3861 21.1531C16.721 19.701 17.4666 18.4347 18.5471 17.3909C20.1483 15.863 22.3093 15.0807 24.9519 15.0807H39.9226C40.8907 16.9802 41.4871 18.9921 41.7096 21.1507H16.3861V21.1531ZM7.63446 14.1518C9.27233 11.3209 11.47 9.08657 14.2642 7.41202C17.0584 5.73502 20.1483 4.91608 23.4998 4.91608C26.8514 4.91608 29.9413 5.73502 32.7355 7.41202C34.1509 8.26763 35.4539 9.2748 36.5711 10.4287H24.7295C22.0478 10.4287 19.6643 10.9885 17.5791 12.1056C15.4938 13.2228 13.8559 14.7507 12.6996 16.7235C11.8807 18.1022 11.36 19.591 11.1351 21.1922H5.32676C5.625 18.6963 6.3706 16.3519 7.6369 14.1909V14.1542L7.63446 14.1518ZM32.7355 39.5878C29.9413 41.2648 26.8514 42.0837 23.4998 42.0837C20.1483 42.0837 17.0584 41.2648 14.2642 39.5878C11.47 37.9108 9.23566 35.6764 7.63446 32.848C6.40483 30.7261 5.62256 28.416 5.32432 25.9592H11.1327C11.3551 27.5604 11.8783 29.0491 12.6972 30.4279C13.851 32.364 15.4914 33.9286 17.5766 35.0457C19.6618 36.1629 22.0453 36.7227 24.727 36.7227H36.4586C35.3414 37.8399 34.1118 38.808 32.7355 39.6269V39.5902V39.5878Z" fill="url(#paint0_radial_1255_15293)"/>
<defs>
<radialGradient id="paint0_radial_1255_15293" cx="0" cy="0" r="1" gradientUnits="userSpaceOnUse" gradientTransform="translate(23.4998 -0.292574) rotate(90) scale(47.2924 47.2923)">
<stop stop-color="white"/>
<stop offset="1" stop-color="white" stop-opacity="0.8"/>
</radialGradient>
</defs>
</svg>
