<svg width="1448" height="827" viewBox="0 0 1448 827" fill="none" xmlns="http://www.w3.org/2000/svg">
<path d="M15.9808 1.23273L557.999 0.575782L802.256 0.575772L920.949 0.575766L1042.96 0.575761L1213.85 0.00745428L1213.85 0.00745428C1220.73 -0.0153732 1224.17 -0.026787 1227.42 0.693246C1230.61 1.39961 1233.66 2.62251 1236.46 4.31367C1239.31 6.03768 1241.79 8.41897 1246.75 13.1815C1263.2 28.9828 1271.43 36.8835 1280.89 42.6142C1290.16 48.2358 1300.29 52.3111 1310.87 54.6805C1321.66 57.0957 1333.07 57.0957 1355.88 57.0957L1432 57.0957C1437.6 57.0957 1440.4 57.0957 1442.54 58.1856C1444.42 59.1444 1445.95 60.6742 1446.91 62.5558C1448 64.6949 1448 67.4952 1448 73.0958L1448 95.2471L1448 122.395L1448 793.96C1448 805.156 1448 810.754 1445.82 815.031C1443.91 818.794 1440.85 821.853 1437.09 823.771C1432.81 825.952 1427.21 825.954 1416.02 825.96L16.0075 826.609C10.4046 826.612 7.60313 826.613 5.463 825.523C3.5805 824.565 2.04986 823.035 1.09057 821.153C2.24027e-06 819.013 3.06573e-06 816.212 4.71663e-06 810.609L0.00020593 127.722L0.0002011 17.2327C0.000200856 11.6383 0.000200734 8.84114 1.08849 6.70332C2.04579 4.82282 3.57341 3.29334 5.45275 2.33374C7.58917 1.24292 10.3863 1.2395 15.9803 1.23273L15.9808 1.23273Z" fill="#27212B"/>
</svg>
