<svg width="47" height="47" viewBox="0 0 47 47" fill="none" xmlns="http://www.w3.org/2000/svg">
<path d="M34.7324 3.11767C31.1742 1.0641 27.3223 0 23.1429 0C18.9636 0 15.1116 1.02799 11.5534 3.11767C7.99518 5.20735 5.20974 7.9952 3.11766 11.5534C1.02799 15.1093 0 18.9612 0 23.143C0 27.3247 1.02799 31.1743 3.11766 34.7325C5.20734 38.2908 7.99518 41.0762 11.5534 43.1683C15.1116 45.258 18.9612 46.286 23.1429 46.286C27.3247 46.286 31.1742 45.258 34.7324 43.1683C38.2907 41.0786 41.0761 38.2908 43.1682 34.7325C45.2578 31.1743 46.2858 27.3247 46.2858 23.143C46.2858 18.9612 45.2578 15.1117 43.1682 11.5534C41.0785 7.9952 38.2907 5.20976 34.7324 3.11767ZM24.5729 31.5041C21.9681 31.5041 19.8784 30.7698 18.2654 29.2676C17.1652 28.2396 16.4694 26.9925 16.1011 25.5264H41.04C40.7824 27.6546 40.1588 29.6335 39.2055 31.5041H24.5344H24.5705H24.5729ZM16.1372 20.8318C16.467 19.4018 17.2013 18.1547 18.2654 17.1267C19.8423 15.6221 21.9705 14.8517 24.5729 14.8517H39.3162C40.2696 16.7223 40.857 18.7036 41.0761 20.8294H16.1372V20.8318ZM7.5185 13.9368C9.1315 11.149 11.2958 8.94855 14.0475 7.29944C16.7993 5.64792 19.8423 4.84142 23.1429 4.84142C26.4435 4.84142 29.4866 5.64792 32.2383 7.29944C33.6322 8.14205 34.9154 9.13393 36.0156 10.2703H24.3539C21.7129 10.2703 19.3656 10.8216 17.312 11.9218C15.2585 13.022 13.6455 14.5267 12.5068 16.4695C11.7003 17.8273 11.1875 19.2934 10.966 20.8703H5.24586C5.53957 18.4123 6.27384 16.1035 7.52091 13.9753V13.9392L7.5185 13.9368ZM32.2383 38.9865C29.4866 40.638 26.4435 41.4445 23.1429 41.4445C19.8423 41.4445 16.7993 40.638 14.0475 38.9865C11.2958 37.335 9.09538 35.1346 7.5185 32.3491C6.30755 30.2594 5.53716 27.9844 5.24345 25.5649H10.9636C11.1827 27.1418 11.6978 28.6079 12.5043 29.9657C13.6407 31.8725 15.2561 33.4132 17.3096 34.5134C19.3632 35.6137 21.7105 36.165 24.3515 36.165H35.9049C34.8047 37.2652 33.5937 38.2185 32.2383 39.025V38.9889V38.9865Z" fill="url(#paint0_radial_3316_580002)"/>
<defs>
<radialGradient id="paint0_radial_3316_580002" cx="0" cy="0" r="1" gradientUnits="userSpaceOnUse" gradientTransform="translate(23.1429 -0.28813) rotate(90) scale(46.5741 46.574)">
<stop stop-color="#1F1F1F"/>
<stop offset="1" stop-color="#1F1F1F" stop-opacity="0.8"/>
</radialGradient>
</defs>
</svg>
