<svg width="46" height="46" viewBox="0 0 46 46" fill="none" xmlns="http://www.w3.org/2000/svg">
<path fill-rule="evenodd" clip-rule="evenodd" d="M26.8371 17.8616C26.837 15.6228 25.0229 13.8086 22.7857 13.808C20.5481 13.808 18.7322 15.6225 18.7321 17.8616C18.7321 20.1008 20.548 21.9152 22.7857 21.9152C25.0229 21.9146 26.8371 20.1005 26.8371 17.8616ZM45.7121 22.8594C45.7121 35.4841 35.4782 45.7188 22.8549 45.7188C10.232 45.7183 0 35.4838 0 22.8594C0.000223977 10.2352 10.2321 0.000491551 22.8549 0C35.4781 0 45.7118 10.2349 45.7121 22.8594ZM31.4085 17.8616C31.4085 22.6244 27.5485 26.486 22.7857 26.4866C18.0224 26.4866 14.1607 22.6247 14.1607 17.8616C14.1608 13.0986 18.0225 9.23661 22.7857 9.23661C27.5484 9.23721 31.4084 13.0989 31.4085 17.8616ZM29.7143 29.7143V34.2857H16V29.7143H29.7143Z" fill="url(#paint0_radial_3316_580014)"/>
<defs>
<radialGradient id="paint0_radial_3316_580014" cx="0" cy="0" r="1" gradientUnits="userSpaceOnUse" gradientTransform="translate(22.856 -0.284599) rotate(90) scale(46.0034 45.9966)">
<stop stop-color="#1F1F1F"/>
<stop offset="1" stop-color="#1F1F1F" stop-opacity="0.72"/>
</radialGradient>
</defs>
</svg>
