<svg width="52" height="52" viewBox="0 0 52 52" fill="none" xmlns="http://www.w3.org/2000/svg">
<path d="M39.0202 3.50255C35.0227 1.19546 30.6952 0 25.9999 0C21.3046 0 16.9772 1.15489 12.9797 3.50255C8.98219 5.8502 5.85289 8.98221 3.50254 12.9797C1.15489 16.9745 0 21.302 0 26C0 30.698 1.15489 35.0228 3.50254 39.0203C5.85019 43.0178 8.98219 46.1471 12.9797 48.4975C16.9772 50.8451 21.3019 52 25.9999 52C30.6979 52 35.0227 50.8451 39.0202 48.4975C43.0177 46.1498 46.147 43.0178 48.4973 39.0203C50.845 35.0228 51.9999 30.698 51.9999 26C51.9999 21.302 50.845 16.9772 48.4973 12.9797C46.1497 8.98221 43.0177 5.85291 39.0202 3.50255ZM27.6065 35.3933C24.6801 35.3933 22.3324 34.5684 20.5203 32.8807C19.2843 31.7258 18.5026 30.3248 18.0888 28.6776H46.1064C45.817 31.0686 45.1165 33.2918 44.0454 35.3933H27.5632H27.6038H27.6065ZM18.1294 23.4035C18.4999 21.7969 19.3248 20.3959 20.5203 19.241C22.2918 17.5506 24.6828 16.6851 27.6065 16.6851H44.1699C45.2409 18.7866 45.9008 21.0126 46.147 23.4008H18.1294V23.4035ZM8.44666 15.6573C10.2588 12.5253 12.6903 10.0533 15.7817 8.20056C18.8731 6.34516 22.2918 5.43909 25.9999 5.43909C29.708 5.43909 33.1267 6.34516 36.2182 8.20056C37.7842 9.1472 39.2257 10.2615 40.4618 11.5381H27.3604C24.3934 11.5381 21.7563 12.1575 19.4492 13.3935C17.1422 14.6296 15.33 16.32 14.0507 18.5027C13.1447 20.0281 12.5686 21.6752 12.3197 23.4468H5.89346C6.22343 20.6853 7.04835 18.0915 8.44937 15.7006V15.66L8.44666 15.6573ZM36.2182 43.7994C33.1267 45.6548 29.708 46.5609 25.9999 46.5609C22.2918 46.5609 18.8731 45.6548 15.7817 43.7994C12.6903 41.944 10.2182 39.472 8.44666 36.3427C7.08622 33.995 6.22073 31.4391 5.89076 28.7209H12.317C12.5632 30.4925 13.142 32.1396 14.048 33.665C15.3246 35.8071 17.1395 37.5381 19.4465 38.7742C21.7536 40.0102 24.3907 40.6296 27.3577 40.6296H40.3374C39.1013 41.8656 37.7409 42.9366 36.2182 43.8427V43.8021V43.7994Z" fill="#ffffff"/>
</svg>
